<?xml version="1.0" encoding="utf-8"?>
<!-- Generator: Adobe Illustrator 15.1.0, SVG Export Plug-In . SVG Version: 6.00 Build 0)  -->
<!DOCTYPE svg PUBLIC "-//W3C//DTD SVG 1.1//EN" "http://www.w3.org/Graphics/SVG/1.1/DTD/svg11.dtd">
<svg version="1.1" id="Layer_1" xmlns="http://www.w3.org/2000/svg" xmlns:xlink="http://www.w3.org/1999/xlink" x="0px" y="0px"
	 width="310px" height="65.25px" viewBox="0 0 310 65.25" enable-background="new 0 0 310 65.25" xml:space="preserve">
<g>
	<path fill="#593479" d="M67.023,39.297h3.711v-15.48h-3.711V39.297z M108.067,23.817v8.853c0,2.545-1.432,3.34-3.208,3.34
		c-1.779,0-3.182-0.795-3.182-3.34v-8.853h-3.713v8.853c0,4.585,2.386,6.891,6.895,6.891c4.533,0,6.919-2.306,6.919-6.891v-8.853
		H108.067z M82.561,39.297h3.711v-9.542c0-1.564,0.637-2.651,2.838-2.651c1.961,0,2.862,0.848,2.862,2.651v9.542h3.715V29.49
		c0-4.214-3.106-5.937-6.577-5.937c-1.671,0-3.527,0.53-4.694,1.696c-1.166-1.166-3.023-1.696-4.692-1.696
		c-3.632,0-6.577,2.014-6.577,5.937v9.808h3.713v-9.542c0-1.564,0.637-2.651,2.836-2.651c1.962,0,2.865,0.848,2.865,2.651V39.297z
		 M32.876,39.561c-4.214,0-7.476-2.862-7.476-8.003c0-5.142,3.262-8.005,7.476-8.005c4.214,0,7.501,2.863,7.501,8.005
		C40.377,36.699,37.09,39.561,32.876,39.561 M32.876,27.104c-2.2,0-3.764,1.326-3.764,4.453c0,3.128,1.564,4.425,3.764,4.425
		c2.226,0,3.79-1.297,3.79-4.425C36.666,28.43,35.102,27.104,32.876,27.104 M20.549,39.297h-3.712v-9.066
		c0-3.789,2.466-6.679,6.84-6.679c0.981,0,1.512,0.133,1.512,0.133l-0.637,3.578c0,0-0.531-0.052-0.875-0.052
		c-2.148,0-3.128,1.297-3.128,3.285V39.297z M7.346,39.561c-1.354,0-2.572-0.344-3.632-1.005v6.968H0V31.558
		c0-5.142,3.128-8.005,7.346-8.005c4.215,0,7.344,2.863,7.344,8.005C14.69,36.699,11.561,39.561,7.346,39.561 M7.346,35.983
		c2.201,0,3.631-1.297,3.631-4.425c0-3.127-1.43-4.453-3.631-4.453c-2.202,0-3.632,1.326-3.632,4.453
		C3.713,34.686,5.144,35.983,7.346,35.983 M120.581,29.834c-2.598-0.901-3.155-1.166-3.155-1.881c0-0.583,0.292-1.06,1.67-1.06
		c2.837,0,5.198,0.716,5.198,0.716l0.688-3.207c-1.218-0.397-2.81-0.849-5.778-0.849c-4.402,0-5.463,2.333-5.463,4.533
		c0,2.279,1.167,3.339,5.091,4.691c2.624,0.927,3.288,1.271,3.288,2.067c0,0.822-0.769,1.376-2.493,1.376
		c-1.432,0-3.5-0.502-5.25-1.243l-0.875,3.207c1.67,0.82,3.474,1.377,6.1,1.377c4.638,0,6.204-2.2,6.204-4.717
		C125.805,32.432,124.665,31.213,120.581,29.834"/>
	<path fill="#59357C" d="M52.821,29.839c-4.129-0.006-7.765-1.028-9.978-2.805l1.914-2.382c1.632,1.31,4.721,2.126,8.064,2.132
		c3.338-0.005,6.428-0.822,8.06-2.132l1.914,2.382C60.582,28.811,56.946,29.833,52.821,29.839"/>
	<path fill="#59357C" d="M60.88,37.727c-1.631-1.31-4.722-2.127-8.063-2.132c-3.338,0.005-6.428,0.822-8.06,2.132l-1.914-2.381
		c2.212-1.777,5.848-2.8,9.974-2.807c4.129,0.007,7.765,1.029,9.978,2.807L60.88,37.727z"/>
	<path fill="#59357C" d="M43.801,27.377c0.847,0,1.533-0.687,1.533-1.533c0-0.847-0.687-1.534-1.533-1.534
		c-0.848,0-1.535,0.687-1.535,1.534C42.266,26.69,42.953,27.377,43.801,27.377"/>
	<path fill="#58367D" d="M43.791,27.37c0.847,0,1.533-0.687,1.533-1.533c0-0.847-0.687-1.534-1.533-1.534
		c-0.848,0-1.535,0.687-1.535,1.534C42.256,26.683,42.943,27.37,43.791,27.37"/>
	<path fill="#58377E" d="M43.762,27.347c0.847,0,1.533-0.687,1.533-1.533c0-0.847-0.687-1.534-1.533-1.534
		c-0.848,0-1.535,0.687-1.535,1.534C42.228,26.66,42.914,27.347,43.762,27.347"/>
	<path fill="#58387E" d="M43.716,27.311c0.847,0,1.534-0.687,1.534-1.533c0-0.847-0.687-1.534-1.534-1.534
		c-0.848,0-1.535,0.687-1.535,1.534C42.182,26.624,42.868,27.311,43.716,27.311"/>
	<path fill="#57397F" d="M43.655,27.261c0.847,0,1.534-0.687,1.534-1.533c0-0.847-0.687-1.534-1.534-1.534
		c-0.848,0-1.535,0.687-1.535,1.534C42.12,26.574,42.807,27.261,43.655,27.261"/>
	<path fill="#573A80" d="M43.581,27.197c0.847,0,1.534-0.687,1.534-1.533c0-0.847-0.687-1.534-1.534-1.534
		c-0.848,0-1.535,0.687-1.535,1.534C42.046,26.51,42.733,27.197,43.581,27.197"/>
	<path fill="#563B80" d="M43.496,27.121c0.847,0,1.533-0.687,1.533-1.533c0-0.847-0.687-1.534-1.533-1.534
		c-0.848,0-1.535,0.687-1.535,1.534C41.96,26.434,42.647,27.121,43.496,27.121"/>
	<path fill="#563C81" d="M43.401,27.033c0.847,0,1.534-0.687,1.534-1.533c0-0.847-0.687-1.534-1.534-1.534
		c-0.848,0-1.535,0.687-1.535,1.534C41.866,26.346,42.553,27.033,43.401,27.033"/>
	<path fill="#563D82" d="M43.298,26.933c0.847,0,1.534-0.687,1.534-1.533c0-0.847-0.687-1.534-1.534-1.534
		c-0.848,0-1.535,0.687-1.535,1.534C41.764,26.246,42.45,26.933,43.298,26.933"/>
	<path fill="#553E83" d="M43.19,26.821c0.847,0,1.534-0.687,1.534-1.533c0-0.848-0.687-1.534-1.534-1.534
		c-0.848,0-1.535,0.687-1.535,1.534C41.656,26.134,42.343,26.821,43.19,26.821"/>
	<path fill="#553F83" d="M43.079,26.7c0.847,0,1.534-0.687,1.534-1.533c0-0.848-0.687-1.534-1.534-1.534
		c-0.848,0-1.535,0.687-1.535,1.534C41.544,26.013,42.231,26.7,43.079,26.7"/>
	<path fill="#554084" d="M42.966,26.568c0.847,0,1.534-0.687,1.534-1.533c0-0.847-0.688-1.534-1.534-1.534
		c-0.848,0-1.535,0.687-1.535,1.534C41.431,25.881,42.118,26.568,42.966,26.568"/>
	<path fill="#544185" d="M42.853,26.426c0.847,0,1.534-0.687,1.534-1.533c0-0.847-0.687-1.534-1.534-1.534
		c-0.848,0-1.535,0.687-1.535,1.534C41.318,25.74,42.005,26.426,42.853,26.426"/>
	<path fill="#544285" d="M42.742,26.276c0.847,0,1.534-0.687,1.534-1.533c0-0.847-0.688-1.534-1.534-1.534
		c-0.848,0-1.535,0.687-1.535,1.534C41.207,25.589,41.894,26.276,42.742,26.276"/>
	<path fill="#544386" d="M42.635,26.117c0.847,0,1.534-0.687,1.534-1.533c0-0.848-0.688-1.534-1.534-1.534
		c-0.848,0-1.535,0.687-1.535,1.534C41.1,25.43,41.787,26.117,42.635,26.117"/>
	<path fill="#534487" d="M42.534,25.95c0.847,0,1.534-0.687,1.534-1.533c0-0.847-0.687-1.534-1.534-1.534
		c-0.848,0-1.535,0.687-1.535,1.534C40.999,25.263,41.686,25.95,42.534,25.95"/>
	<path fill="#534587" d="M42.44,25.775c0.847,0,1.534-0.687,1.534-1.533c0-0.847-0.687-1.534-1.534-1.534
		c-0.848,0-1.535,0.687-1.535,1.534C40.906,25.088,41.593,25.775,42.44,25.775"/>
	<path fill="#534688" d="M42.357,25.593c0.847,0,1.534-0.687,1.534-1.533c0-0.847-0.687-1.534-1.534-1.534
		c-0.848,0-1.535,0.687-1.535,1.534C40.822,24.906,41.509,25.593,42.357,25.593"/>
	<path fill="#524789" d="M42.285,25.405c0.847,0,1.534-0.687,1.534-1.533c0-0.847-0.687-1.534-1.534-1.534
		c-0.848,0-1.535,0.687-1.535,1.534C40.75,24.718,41.438,25.405,42.285,25.405"/>
	<path fill="#524889" d="M42.227,25.211c0.847,0,1.534-0.687,1.534-1.533c0-0.847-0.687-1.534-1.534-1.534
		c-0.848,0-1.535,0.687-1.535,1.534C40.692,24.524,41.379,25.211,42.227,25.211"/>
	<path fill="#52498A" d="M42.184,25.011c0.847,0,1.534-0.687,1.534-1.533c0-0.847-0.687-1.534-1.534-1.534
		c-0.848,0-1.535,0.687-1.535,1.534C40.649,24.324,41.336,25.011,42.184,25.011"/>
	<path fill="#514A8B" d="M42.158,24.807c0.847,0,1.534-0.687,1.534-1.533c0-0.847-0.687-1.534-1.534-1.534
		c-0.848,0-1.535,0.687-1.535,1.534C40.624,24.12,41.31,24.807,42.158,24.807"/>
	<path fill="#514B8C" d="M42.151,24.598c0.847,0,1.534-0.687,1.534-1.533c0-0.847-0.687-1.534-1.534-1.534
		c-0.848,0-1.535,0.687-1.535,1.534C40.617,23.911,41.304,24.598,42.151,24.598"/>
	<path fill="#504C8C" d="M42.166,24.384c0.847,0,1.534-0.687,1.534-1.533c0-0.847-0.687-1.534-1.534-1.534
		c-0.848,0-1.534,0.687-1.534,1.534C40.632,23.697,41.318,24.384,42.166,24.384"/>
	<path fill="#504D8D" d="M42.204,24.168c0.847,0,1.534-0.687,1.534-1.533c0-0.847-0.687-1.534-1.534-1.534
		c-0.848,0-1.535,0.687-1.535,1.534C40.669,23.481,41.356,24.168,42.204,24.168"/>
	<path fill="#504E8E" d="M42.267,23.949c0.847,0,1.534-0.687,1.534-1.533c0-0.848-0.687-1.534-1.534-1.534
		c-0.848,0-1.534,0.687-1.534,1.534C40.732,23.262,41.419,23.949,42.267,23.949"/>
	<path fill="#4F4F8E" d="M42.356,23.727c0.847,0,1.534-0.687,1.534-1.533c0-0.847-0.687-1.534-1.534-1.534
		c-0.848,0-1.535,0.687-1.535,1.534C40.822,23.04,41.508,23.727,42.356,23.727"/>
	<path fill="#4F508F" d="M42.475,23.503c0.847,0,1.534-0.687,1.534-1.533c0-0.847-0.687-1.534-1.534-1.534
		c-0.848,0-1.535,0.687-1.535,1.534C40.94,22.817,41.627,23.503,42.475,23.503"/>
	<path fill="#4F5190" d="M42.624,23.279c0.847,0,1.534-0.687,1.534-1.533c0-0.847-0.687-1.534-1.534-1.534
		c-0.848,0-1.535,0.687-1.535,1.534C41.089,22.592,41.776,23.279,42.624,23.279"/>
	<path fill="#4E5290" d="M42.805,23.053c0.847,0,1.534-0.687,1.534-1.533c0-0.847-0.687-1.534-1.534-1.534
		c-0.848,0-1.535,0.687-1.535,1.534C41.271,22.366,41.958,23.053,42.805,23.053"/>
	<path fill="#4E5391" d="M43.021,22.828c0.847,0,1.534-0.687,1.534-1.533c0-0.847-0.687-1.534-1.534-1.534
		c-0.848,0-1.535,0.687-1.535,1.534C41.486,22.141,42.172,22.828,43.021,22.828"/>
	<path fill="#4E5492" d="M43.246,22.627c0.847,0,1.534-0.687,1.534-1.533c0-0.847-0.687-1.534-1.534-1.534
		c-0.848,0-1.534,0.687-1.534,1.534C41.712,21.941,42.398,22.627,43.246,22.627"/>
	<path fill="#4D5592" d="M43.472,22.461c0.847,0,1.534-0.687,1.534-1.533c0-0.847-0.687-1.534-1.534-1.534
		c-0.848,0-1.534,0.687-1.534,1.534C41.938,21.774,42.624,22.461,43.472,22.461"/>
	<path fill="#4D5693" d="M43.696,22.326c0.847,0,1.534-0.687,1.534-1.533c0-0.848-0.687-1.534-1.534-1.534
		c-0.848,0-1.535,0.687-1.535,1.534C42.162,21.639,42.848,22.326,43.696,22.326"/>
	<path fill="#4D5794" d="M43.919,22.221c0.847,0,1.534-0.687,1.534-1.533c0-0.847-0.687-1.534-1.534-1.534
		c-0.848,0-1.535,0.687-1.535,1.534C42.384,21.534,43.071,22.221,43.919,22.221"/>
	<path fill="#4C5895" d="M44.14,22.143c0.847,0,1.534-0.687,1.534-1.533c0-0.847-0.687-1.534-1.534-1.534
		c-0.848,0-1.535,0.687-1.535,1.534C42.605,21.456,43.292,22.143,44.14,22.143"/>
	<path fill="#4C5995" d="M44.358,22.092c0.847,0,1.534-0.687,1.534-1.533c0-0.847-0.688-1.534-1.534-1.534
		c-0.848,0-1.535,0.687-1.535,1.534C42.823,21.405,43.51,22.092,44.358,22.092"/>
	<path fill="#4C5A96" d="M44.573,22.064c0.847,0,1.534-0.687,1.534-1.533c0-0.848-0.687-1.534-1.534-1.534
		c-0.848,0-1.535,0.687-1.535,1.534C43.038,21.377,43.725,22.064,44.573,22.064"/>
	<path fill="#4B5B97" d="M44.784,22.06c0.847,0,1.534-0.687,1.534-1.533c0-0.847-0.687-1.534-1.534-1.534s-1.535,0.687-1.535,1.534
		C43.249,21.373,43.937,22.06,44.784,22.06"/>
	<path fill="#4B5C97" d="M44.991,22.075c0.847,0,1.534-0.687,1.534-1.533c0-0.848-0.688-1.534-1.534-1.534
		c-0.848,0-1.535,0.686-1.535,1.534C43.457,21.388,44.144,22.075,44.991,22.075"/>
	<path fill="#4A5D98" d="M45.193,22.108c0.847,0,1.534-0.687,1.534-1.533c0-0.848-0.687-1.534-1.534-1.534s-1.535,0.686-1.535,1.534
		C43.659,21.421,44.346,22.108,45.193,22.108"/>
	<path fill="#4A5E99" d="M45.391,22.158c0.847,0,1.534-0.687,1.534-1.533c0-0.848-0.688-1.534-1.534-1.534
		c-0.848,0-1.535,0.686-1.535,1.534C43.856,21.471,44.543,22.158,45.391,22.158"/>
	<path fill="#4A5F99" d="M45.583,22.223c0.847,0,1.534-0.687,1.534-1.533c0-0.848-0.687-1.534-1.534-1.534
		c-0.848,0-1.535,0.686-1.535,1.534C44.048,21.536,44.735,22.223,45.583,22.223"/>
	<path fill="#49609A" d="M45.768,22.3c0.847,0,1.535-0.687,1.535-1.533c0-0.848-0.688-1.534-1.535-1.534s-1.534,0.686-1.534,1.534
		C44.233,21.613,44.92,22.3,45.768,22.3"/>
	<path fill="#49619B" d="M45.946,22.388c0.847,0,1.535-0.687,1.535-1.533c0-0.848-0.688-1.534-1.535-1.534s-1.534,0.687-1.534,1.534
		C44.412,21.701,45.099,22.388,45.946,22.388"/>
	<path fill="#49629B" d="M46.118,22.485c0.848,0,1.534-0.687,1.534-1.533c0-0.848-0.687-1.534-1.534-1.534
		c-0.847,0-1.535,0.686-1.535,1.534C44.583,21.798,45.271,22.485,46.118,22.485"/>
	<path fill="#48639C" d="M46.282,22.589c0.847,0,1.534-0.687,1.534-1.533c0-0.848-0.687-1.534-1.534-1.534
		c-0.848,0-1.535,0.687-1.535,1.534C44.747,21.902,45.434,22.589,46.282,22.589"/>
	<path fill="#48649D" d="M46.437,22.698c0.847,0,1.534-0.687,1.534-1.533c0-0.847-0.687-1.534-1.534-1.534
		c-0.848,0-1.534,0.687-1.534,1.534C44.903,22.011,45.589,22.698,46.437,22.698"/>
	<path fill="#48659D" d="M46.583,22.81c0.848,0,1.534-0.687,1.534-1.533c0-0.848-0.687-1.534-1.534-1.534
		c-0.847,0-1.534,0.686-1.534,1.534C45.049,22.123,45.736,22.81,46.583,22.81"/>
	<path fill="#47669E" d="M46.721,22.923c0.848,0,1.534-0.687,1.534-1.533c0-0.848-0.687-1.534-1.534-1.534
		c-0.847,0-1.534,0.686-1.534,1.534C45.187,22.236,45.874,22.923,46.721,22.923"/>
	<path fill="#47679F" d="M46.849,23.036c0.847,0,1.534-0.687,1.534-1.533c0-0.848-0.687-1.534-1.534-1.534
		c-0.848,0-1.535,0.687-1.535,1.534C45.314,22.349,46.001,23.036,46.849,23.036"/>
	<path fill="#4768A0" d="M46.965,23.146c0.848,0,1.534-0.687,1.534-1.533c0-0.848-0.687-1.534-1.534-1.534
		c-0.847,0-1.534,0.686-1.534,1.534C45.432,22.459,46.118,23.146,46.965,23.146"/>
	<path fill="#4669A0" d="M47.072,23.251c0.848,0,1.534-0.687,1.534-1.533c0-0.848-0.687-1.534-1.534-1.534s-1.534,0.686-1.534,1.534
		C45.538,22.565,46.224,23.251,47.072,23.251"/>
	<path fill="#466AA1" d="M47.167,23.351c0.848,0,1.534-0.687,1.534-1.533c0-0.848-0.687-1.534-1.534-1.534
		c-0.847,0-1.534,0.686-1.534,1.534C45.632,22.664,46.319,23.351,47.167,23.351"/>
	<path fill="#466BA2" d="M47.25,23.441c0.848,0,1.534-0.687,1.534-1.533c0-0.848-0.687-1.534-1.534-1.534
		c-0.847,0-1.534,0.687-1.534,1.534C45.715,22.755,46.402,23.441,47.25,23.441"/>
	<path fill="#456CA2" d="M47.32,23.522c0.847,0,1.534-0.687,1.534-1.533c0-0.848-0.687-1.534-1.534-1.534
		c-0.848,0-1.534,0.686-1.534,1.534C45.786,22.835,46.473,23.522,47.32,23.522"/>
	<path fill="#456DA3" d="M47.378,23.591c0.848,0,1.534-0.687,1.534-1.533c0-0.848-0.687-1.534-1.534-1.534s-1.534,0.686-1.534,1.534
		C45.844,22.904,46.53,23.591,47.378,23.591"/>
	<path fill="#446EA4" d="M47.422,23.645c0.847,0,1.534-0.687,1.534-1.533c0-0.848-0.687-1.534-1.534-1.534
		c-0.848,0-1.534,0.686-1.534,1.534C45.888,22.958,46.575,23.645,47.422,23.645"/>
	<path fill="#446FA4" d="M47.453,23.684c0.847,0,1.534-0.687,1.534-1.533c0-0.848-0.687-1.534-1.534-1.534
		c-0.848,0-1.534,0.686-1.534,1.534C45.918,22.998,46.605,23.684,47.453,23.684"/>
	<path fill="#446FA5" d="M47.468,23.705c0.848,0,1.534-0.687,1.534-1.533c0-0.848-0.687-1.534-1.534-1.534
		c-0.847,0-1.534,0.686-1.534,1.534C45.934,23.018,46.621,23.705,47.468,23.705"/>
	<path fill="#4370A6" d="M47.51,23.758c0.848,0,1.535-0.687,1.535-1.533c0-0.848-0.687-1.534-1.535-1.534
		c-0.847,0-1.534,0.687-1.534,1.534C45.976,23.071,46.663,23.758,47.51,23.758"/>
	<path fill="#4371A6" d="M47.6,23.874c0.847,0,1.534-0.687,1.534-1.533c0-0.848-0.687-1.534-1.534-1.534
		c-0.848,0-1.534,0.686-1.534,1.534C46.065,23.187,46.752,23.874,47.6,23.874"/>
	<path fill="#4372A7" d="M47.687,23.992c0.847,0,1.534-0.687,1.534-1.533c0-0.848-0.687-1.534-1.534-1.534
		c-0.848,0-1.534,0.687-1.534,1.534C46.153,23.305,46.839,23.992,47.687,23.992"/>
	<path fill="#4273A8" d="M47.772,24.113c0.848,0,1.534-0.687,1.534-1.533c0-0.848-0.687-1.534-1.534-1.534
		c-0.847,0-1.534,0.686-1.534,1.534C46.239,23.426,46.925,24.113,47.772,24.113"/>
	<path fill="#4274A9" d="M47.857,24.237c0.848,0,1.535-0.687,1.535-1.533c0-0.848-0.687-1.534-1.535-1.534s-1.534,0.686-1.534,1.534
		C46.323,23.55,47.009,24.237,47.857,24.237"/>
	<path fill="#4275A9" d="M47.939,24.364c0.848,0,1.535-0.687,1.535-1.533c0-0.848-0.687-1.534-1.535-1.534s-1.534,0.687-1.534,1.534
		C46.405,23.677,47.092,24.364,47.939,24.364"/>
	<path fill="#4176AA" d="M48.021,24.494c0.848,0,1.535-0.687,1.535-1.533c0-0.848-0.687-1.534-1.535-1.534s-1.534,0.686-1.534,1.534
		C46.486,23.807,47.173,24.494,48.021,24.494"/>
	<path fill="#4177AB" d="M48.1,24.626c0.848,0,1.535-0.687,1.535-1.533c0-0.848-0.687-1.534-1.535-1.534
		c-0.847,0-1.534,0.686-1.534,1.534C46.565,23.939,47.252,24.626,48.1,24.626"/>
	<path fill="#4178AB" d="M48.177,24.761c0.848,0,1.535-0.687,1.535-1.533c0-0.848-0.687-1.534-1.535-1.534
		c-0.847,0-1.534,0.686-1.534,1.534C46.643,24.074,47.33,24.761,48.177,24.761"/>
	<path fill="#4079AC" d="M48.253,24.898c0.848,0,1.535-0.687,1.535-1.533c0-0.848-0.687-1.534-1.535-1.534
		c-0.847,0-1.534,0.687-1.534,1.534C46.719,24.211,47.407,24.898,48.253,24.898"/>
	<path fill="#407AAD" d="M48.328,25.038c0.847,0,1.535-0.687,1.535-1.533c0-0.848-0.688-1.534-1.535-1.534s-1.534,0.686-1.534,1.534
		C46.794,24.352,47.481,25.038,48.328,25.038"/>
	<path fill="#3F7BAD" d="M48.401,25.181c0.847,0,1.535-0.687,1.535-1.533c0-0.848-0.688-1.534-1.535-1.534s-1.534,0.686-1.534,1.534
		C46.867,24.494,47.554,25.181,48.401,25.181"/>
	<path fill="#3F7CAE" d="M48.472,25.325c0.847,0,1.534-0.687,1.534-1.533c0-0.848-0.687-1.534-1.534-1.534s-1.535,0.687-1.535,1.534
		C46.938,24.639,47.625,25.325,48.472,25.325"/>
	<path fill="#3F7DAF" d="M48.542,25.473c0.848,0,1.535-0.687,1.535-1.533c0-0.848-0.687-1.534-1.535-1.534
		c-0.847,0-1.534,0.686-1.534,1.534C47.007,24.786,47.694,25.473,48.542,25.473"/>
	<path fill="#3E7EAF" d="M48.609,25.622c0.848,0,1.535-0.687,1.535-1.533c0-0.848-0.687-1.534-1.535-1.534
		c-0.847,0-1.534,0.687-1.534,1.534C47.075,24.936,47.762,25.622,48.609,25.622"/>
	<path fill="#3E7FB0" d="M48.676,25.774c0.848,0,1.535-0.687,1.535-1.533c0-0.848-0.687-1.534-1.535-1.534
		c-0.847,0-1.534,0.687-1.534,1.534C47.142,25.087,47.829,25.774,48.676,25.774"/>
	<path fill="#3E80B1" d="M48.74,25.928c0.848,0,1.535-0.687,1.535-1.533c0-0.848-0.687-1.534-1.535-1.534
		c-0.847,0-1.534,0.686-1.534,1.534C47.206,25.241,47.893,25.928,48.74,25.928"/>
	<path fill="#3D81B2" d="M48.803,26.084c0.848,0,1.535-0.687,1.535-1.533c0-0.848-0.687-1.534-1.535-1.534
		c-0.847,0-1.534,0.686-1.534,1.534C47.27,25.397,47.956,26.084,48.803,26.084"/>
	<path fill="#3D82B2" d="M48.865,26.243c0.848,0,1.534-0.687,1.534-1.533c0-0.848-0.687-1.534-1.534-1.534
		c-0.847,0-1.534,0.686-1.534,1.534C47.331,25.556,48.018,26.243,48.865,26.243"/>
	<path fill="#3D83B3" d="M48.924,26.403c0.848,0,1.535-0.687,1.535-1.533c0-0.848-0.687-1.534-1.535-1.534
		c-0.847,0-1.534,0.687-1.534,1.534C47.391,25.716,48.077,26.403,48.924,26.403"/>
	<path fill="#3C84B4" d="M48.982,26.565c0.848,0,1.535-0.687,1.535-1.533c0-0.848-0.687-1.534-1.535-1.534
		c-0.847,0-1.534,0.686-1.534,1.534C47.448,25.878,48.135,26.565,48.982,26.565"/>
	<path fill="#3C85B4" d="M49.039,26.729c0.848,0,1.535-0.687,1.535-1.533c0-0.848-0.687-1.534-1.535-1.534
		c-0.847,0-1.534,0.686-1.534,1.534C47.504,26.043,48.191,26.729,49.039,26.729"/>
	<path fill="#3C86B5" d="M49.093,26.896c0.848,0,1.535-0.687,1.535-1.533c0-0.848-0.687-1.534-1.535-1.534
		c-0.847,0-1.534,0.686-1.534,1.534C47.559,26.209,48.246,26.896,49.093,26.896"/>
	<path fill="#3B87B6" d="M49.146,27.064c0.848,0,1.535-0.687,1.535-1.533c0-0.848-0.687-1.534-1.535-1.534
		c-0.847,0-1.534,0.687-1.534,1.534C47.612,26.377,48.299,27.064,49.146,27.064"/>
	<path fill="#3B88B6" d="M49.197,27.234c0.848,0,1.535-0.687,1.535-1.533c0-0.848-0.687-1.534-1.535-1.534
		c-0.847,0-1.534,0.687-1.534,1.534C47.664,26.547,48.35,27.234,49.197,27.234"/>
	<path fill="#3B89B7" d="M49.247,27.406c0.848,0,1.534-0.687,1.534-1.533c0-0.848-0.687-1.534-1.534-1.534
		c-0.847,0-1.534,0.686-1.534,1.534C47.713,26.719,48.4,27.406,49.247,27.406"/>
	<path fill="#3A8AB8" d="M49.295,27.579c0.848,0,1.534-0.687,1.534-1.533c0-0.848-0.687-1.534-1.534-1.534
		c-0.847,0-1.534,0.687-1.534,1.534C47.761,26.893,48.448,27.579,49.295,27.579"/>
	<path fill="#3A8BB8" d="M49.341,27.754c0.848,0,1.535-0.687,1.535-1.533c0-0.848-0.687-1.534-1.535-1.534
		c-0.847,0-1.534,0.686-1.534,1.534C47.807,27.068,48.494,27.754,49.341,27.754"/>
	<path fill="#398CB9" d="M49.385,27.931c0.848,0,1.535-0.687,1.535-1.533c0-0.848-0.687-1.534-1.535-1.534
		c-0.847,0-1.534,0.687-1.534,1.534C47.852,27.244,48.538,27.931,49.385,27.931"/>
	<path fill="#398DBA" d="M49.428,28.109c0.848,0,1.535-0.687,1.535-1.533c0-0.848-0.687-1.534-1.535-1.534
		c-0.847,0-1.534,0.686-1.534,1.534C47.895,27.422,48.581,28.109,49.428,28.109"/>
	<path fill="#398EBB" d="M49.469,28.289c0.848,0,1.535-0.687,1.535-1.533c0-0.848-0.687-1.534-1.535-1.534
		c-0.847,0-1.534,0.686-1.534,1.534C47.936,27.603,48.622,28.289,49.469,28.289"/>
	<path fill="#388FBB" d="M49.509,28.47c0.848,0,1.535-0.687,1.535-1.533c0-0.848-0.687-1.534-1.535-1.534
		c-0.847,0-1.534,0.686-1.534,1.534C47.975,27.784,48.662,28.47,49.509,28.47"/>
	<path fill="#3890BC" d="M49.547,28.653c0.848,0,1.534-0.687,1.534-1.533c0-0.848-0.687-1.534-1.534-1.534
		c-0.847,0-1.534,0.686-1.534,1.534C48.013,27.966,48.7,28.653,49.547,28.653"/>
	<path fill="#3891BD" d="M49.583,28.836c0.848,0,1.535-0.687,1.535-1.532c0-0.848-0.687-1.534-1.535-1.534
		c-0.847,0-1.534,0.686-1.534,1.534C48.049,28.15,48.735,28.836,49.583,28.836"/>
	<path fill="#3792BD" d="M49.617,29.022c0.848,0,1.535-0.687,1.535-1.533c0-0.848-0.687-1.534-1.535-1.534
		c-0.847,0-1.534,0.687-1.534,1.534C48.083,28.335,48.77,29.022,49.617,29.022"/>
	<path fill="#3793BE" d="M49.649,29.208c0.848,0,1.535-0.687,1.535-1.533c0-0.848-0.688-1.534-1.535-1.534
		c-0.847,0-1.534,0.687-1.534,1.534C48.116,28.522,48.802,29.208,49.649,29.208"/>
	<path fill="#3794BF" d="M49.681,29.396c0.848,0,1.535-0.687,1.535-1.532c0-0.848-0.687-1.534-1.535-1.534
		c-0.847,0-1.534,0.686-1.534,1.534C48.147,28.709,48.833,29.396,49.681,29.396"/>
	<path fill="#3695BF" d="M49.709,29.585c0.848,0,1.535-0.687,1.535-1.533c0-0.848-0.687-1.534-1.535-1.534
		c-0.847,0-1.534,0.686-1.534,1.534C48.176,28.898,48.863,29.585,49.709,29.585"/>
	<path fill="#3696C0" d="M49.737,29.775c0.848,0,1.535-0.687,1.535-1.533c0-0.848-0.687-1.534-1.535-1.534
		c-0.847,0-1.534,0.686-1.534,1.534C48.203,29.089,48.89,29.775,49.737,29.775"/>
	<path fill="#3697C1" d="M49.763,29.966c0.848,0,1.535-0.687,1.535-1.533c0-0.848-0.687-1.534-1.535-1.534
		c-0.847,0-1.534,0.686-1.534,1.534C48.229,29.28,48.916,29.966,49.763,29.966"/>
	<path fill="#3598C1" d="M49.787,30.158c0.848,0,1.535-0.687,1.535-1.533c0-0.848-0.687-1.534-1.535-1.534
		c-0.847,0-1.534,0.687-1.534,1.534C48.253,29.472,48.94,30.158,49.787,30.158"/>
	<path fill="#3599C2" d="M49.809,30.351c0.848,0,1.535-0.687,1.535-1.532c0-0.848-0.687-1.535-1.535-1.535
		c-0.847,0-1.534,0.687-1.534,1.535C48.275,29.665,48.962,30.351,49.809,30.351"/>
	<path fill="#359AC3" d="M49.83,30.545c0.848,0,1.535-0.687,1.535-1.533c0-0.848-0.687-1.534-1.535-1.534
		c-0.847,0-1.534,0.686-1.534,1.534C48.296,29.859,48.983,30.545,49.83,30.545"/>
	<path fill="#349BC4" d="M49.849,30.74c0.848,0,1.535-0.687,1.535-1.533c0-0.848-0.687-1.534-1.535-1.534
		c-0.847,0-1.534,0.686-1.534,1.534C48.314,30.054,49.001,30.74,49.849,30.74"/>
	<path fill="#349CC4" d="M49.865,30.936c0.848,0,1.535-0.686,1.535-1.533c0-0.848-0.687-1.534-1.535-1.534
		c-0.847,0-1.534,0.686-1.534,1.534C48.332,30.25,49.019,30.936,49.865,30.936"/>
	<path fill="#339DC5" d="M49.881,31.132c0.848,0,1.535-0.686,1.535-1.533c0-0.848-0.687-1.534-1.535-1.534
		c-0.847,0-1.534,0.687-1.534,1.534C48.347,30.446,49.034,31.132,49.881,31.132"/>
	<path fill="#339EC6" d="M49.894,31.329c0.848,0,1.535-0.686,1.535-1.532c0-0.848-0.687-1.535-1.535-1.535
		c-0.847,0-1.533,0.687-1.533,1.535C48.361,30.643,49.047,31.329,49.894,31.329"/>
	<path fill="#339FC6" d="M49.906,31.526c0.848,0,1.535-0.686,1.535-1.533c0-0.848-0.687-1.534-1.535-1.534
		c-0.847,0-1.533,0.687-1.533,1.534C48.373,30.84,49.059,31.526,49.906,31.526"/>
	<path fill="#32A0C7" d="M49.916,31.725c0.848,0,1.535-0.686,1.535-1.532c0-0.848-0.687-1.535-1.535-1.535
		c-0.847,0-1.534,0.687-1.534,1.535C48.382,31.039,49.069,31.725,49.916,31.725"/>
	<path fill="#32A1C8" d="M49.924,31.923c0.848,0,1.535-0.686,1.535-1.532c0-0.848-0.687-1.535-1.535-1.535
		c-0.847,0-1.533,0.687-1.533,1.535C48.391,31.237,49.078,31.923,49.924,31.923"/>
	<path fill="#32A2C8" d="M49.931,32.123c0.848,0,1.535-0.686,1.535-1.532c0-0.848-0.687-1.534-1.535-1.534
		c-0.847,0-1.533,0.686-1.533,1.534C48.397,31.437,49.084,32.123,49.931,32.123"/>
	<path fill="#31A3C9" d="M49.936,32.323c0.848,0,1.535-0.687,1.535-1.533c0-0.848-0.687-1.534-1.535-1.534
		c-0.847,0-1.534,0.686-1.534,1.534C48.402,31.636,49.089,32.323,49.936,32.323"/>
	<path fill="#31A4CA" d="M49.938,32.522c0.848,0,1.535-0.686,1.535-1.533c0-0.848-0.687-1.534-1.535-1.534
		c-0.847,0-1.533,0.687-1.533,1.534C48.405,31.836,49.092,32.522,49.938,32.522"/>
	<path fill="#31A5CA" d="M49.94,32.723c0.848,0,1.535-0.686,1.535-1.533c0-0.848-0.687-1.534-1.535-1.534
		c-0.847,0-1.534,0.686-1.534,1.534C48.406,32.037,49.093,32.723,49.94,32.723"/>
	<path fill="#59357C" d="M43.801,35.002c0.847,0,1.533,0.687,1.533,1.533s-0.687,1.533-1.533,1.533
		c-0.848,0-1.535-0.687-1.535-1.533S42.953,35.002,43.801,35.002"/>
	<path fill="#58367D" d="M43.791,35.01c0.847,0,1.533,0.688,1.533,1.534s-0.687,1.532-1.533,1.532c-0.848,0-1.535-0.686-1.535-1.532
		S42.943,35.01,43.791,35.01"/>
	<path fill="#58377E" d="M43.762,35.033c0.847,0,1.533,0.688,1.533,1.534s-0.687,1.532-1.533,1.532
		c-0.848,0-1.535-0.686-1.535-1.532S42.914,35.033,43.762,35.033"/>
	<path fill="#58387E" d="M43.716,35.069c0.847,0,1.533,0.688,1.533,1.534s-0.687,1.533-1.533,1.533
		c-0.848,0-1.535-0.687-1.535-1.533S42.868,35.069,43.716,35.069"/>
	<path fill="#57397F" d="M43.655,35.12c0.847,0,1.534,0.687,1.534,1.533c0,0.848-0.687,1.533-1.534,1.533
		c-0.848,0-1.535-0.686-1.535-1.533C42.12,35.806,42.807,35.12,43.655,35.12"/>
	<path fill="#573A80" d="M43.581,35.183c0.847,0,1.534,0.687,1.534,1.533c0,0.848-0.687,1.533-1.534,1.533
		c-0.848,0-1.535-0.686-1.535-1.533C42.046,35.87,42.733,35.183,43.581,35.183"/>
	<path fill="#563B80" d="M43.496,35.259c0.847,0,1.534,0.687,1.534,1.533s-0.687,1.533-1.534,1.533
		c-0.848,0-1.535-0.687-1.535-1.533S42.647,35.259,43.496,35.259"/>
	<path fill="#563C81" d="M43.401,35.347c0.847,0,1.534,0.688,1.534,1.534s-0.687,1.532-1.534,1.532
		c-0.848,0-1.535-0.686-1.535-1.532S42.553,35.347,43.401,35.347"/>
	<path fill="#563D82" d="M43.298,35.448c0.847,0,1.534,0.687,1.534,1.533s-0.687,1.533-1.534,1.533
		c-0.848,0-1.535-0.687-1.535-1.533S42.45,35.448,43.298,35.448"/>
	<path fill="#553E83" d="M43.19,35.558c0.847,0,1.534,0.688,1.534,1.534s-0.687,1.533-1.534,1.533c-0.848,0-1.535-0.687-1.535-1.533
		S42.343,35.558,43.19,35.558"/>
	<path fill="#553F83" d="M43.079,35.68c0.847,0,1.534,0.688,1.534,1.534s-0.687,1.532-1.534,1.532c-0.848,0-1.535-0.686-1.535-1.532
		S42.231,35.68,43.079,35.68"/>
	<path fill="#554084" d="M42.966,35.812c0.847,0,1.534,0.688,1.534,1.534s-0.687,1.532-1.534,1.532
		c-0.848,0-1.535-0.686-1.535-1.532S42.118,35.812,42.966,35.812"/>
	<path fill="#544185" d="M42.853,35.954c0.847,0,1.534,0.687,1.534,1.533s-0.687,1.534-1.534,1.534
		c-0.848,0-1.535-0.688-1.535-1.534S42.005,35.954,42.853,35.954"/>
	<path fill="#544285" d="M42.742,36.104c0.847,0,1.534,0.687,1.534,1.534c0,0.847-0.688,1.533-1.534,1.533
		c-0.848,0-1.535-0.687-1.535-1.533C41.207,36.791,41.894,36.104,42.742,36.104"/>
	<path fill="#544386" d="M42.635,36.263c0.847,0,1.534,0.687,1.534,1.533c0,0.848-0.688,1.534-1.534,1.534
		c-0.848,0-1.535-0.687-1.535-1.534C41.1,36.95,41.787,36.263,42.635,36.263"/>
	<path fill="#534487" d="M42.534,36.43c0.847,0,1.534,0.687,1.534,1.533c0,0.848-0.688,1.533-1.534,1.533
		c-0.848,0-1.535-0.686-1.535-1.533C40.999,37.117,41.686,36.43,42.534,36.43"/>
	<path fill="#534587" d="M42.44,36.605c0.847,0,1.534,0.687,1.534,1.533s-0.687,1.534-1.534,1.534c-0.848,0-1.535-0.688-1.535-1.534
		S41.593,36.605,42.44,36.605"/>
	<path fill="#534688" d="M42.357,36.787c0.847,0,1.534,0.687,1.534,1.533s-0.687,1.533-1.534,1.533
		c-0.848,0-1.535-0.687-1.535-1.533S41.509,36.787,42.357,36.787"/>
	<path fill="#524789" d="M42.285,36.975c0.847,0,1.534,0.687,1.534,1.533s-0.687,1.533-1.534,1.533
		c-0.848,0-1.535-0.687-1.535-1.533S41.437,36.975,42.285,36.975"/>
	<path fill="#524889" d="M42.227,37.169c0.847,0,1.534,0.687,1.534,1.533s-0.687,1.533-1.534,1.533
		c-0.848,0-1.535-0.687-1.535-1.533S41.379,37.169,42.227,37.169"/>
	<path fill="#52498A" d="M42.184,37.369c0.847,0,1.534,0.688,1.534,1.534s-0.687,1.532-1.534,1.532
		c-0.848,0-1.535-0.686-1.535-1.532S41.336,37.369,42.184,37.369"/>
	<path fill="#514A8B" d="M42.158,37.574c0.847,0,1.534,0.687,1.534,1.533s-0.687,1.533-1.534,1.533
		c-0.848,0-1.535-0.687-1.535-1.533S41.31,37.574,42.158,37.574"/>
	<path fill="#514B8C" d="M42.151,37.783c0.847,0,1.534,0.687,1.534,1.533s-0.687,1.533-1.534,1.533
		c-0.848,0-1.535-0.687-1.535-1.533S41.304,37.783,42.151,37.783"/>
	<path fill="#504C8C" d="M42.166,37.996c0.847,0,1.534,0.687,1.534,1.533s-0.687,1.533-1.534,1.533
		c-0.848,0-1.534-0.687-1.534-1.533S41.318,37.996,42.166,37.996"/>
	<path fill="#504D8D" d="M42.204,38.211c0.847,0,1.534,0.688,1.534,1.534s-0.687,1.533-1.534,1.533
		c-0.848,0-1.535-0.687-1.535-1.533S41.356,38.211,42.204,38.211"/>
	<path fill="#504E8E" d="M42.267,38.431c0.847,0,1.534,0.687,1.534,1.533s-0.687,1.534-1.534,1.534
		c-0.848,0-1.534-0.688-1.534-1.534S41.419,38.431,42.267,38.431"/>
	<path fill="#4F4F8E" d="M42.356,38.653c0.847,0,1.534,0.687,1.534,1.533s-0.687,1.533-1.534,1.533
		c-0.848,0-1.535-0.687-1.535-1.533S41.508,38.653,42.356,38.653"/>
	<path fill="#4F508F" d="M42.475,38.876c0.847,0,1.534,0.687,1.534,1.533s-0.687,1.533-1.534,1.533
		c-0.848,0-1.535-0.687-1.535-1.533S41.627,38.876,42.475,38.876"/>
	<path fill="#4F5190" d="M42.624,39.101c0.847,0,1.534,0.688,1.534,1.533c0,0.848-0.687,1.534-1.534,1.534
		c-0.848,0-1.535-0.687-1.535-1.534C41.089,39.789,41.776,39.101,42.624,39.101"/>
	<path fill="#4E5290" d="M42.806,39.327c0.847,0,1.534,0.688,1.534,1.533c0,0.848-0.687,1.533-1.534,1.533
		c-0.848,0-1.535-0.686-1.535-1.533C41.271,40.014,41.958,39.327,42.806,39.327"/>
	<path fill="#4E5391" d="M43.021,39.551c0.847,0,1.534,0.688,1.534,1.534s-0.687,1.533-1.534,1.533
		c-0.848,0-1.534-0.687-1.534-1.533S42.173,39.551,43.021,39.551"/>
	<path fill="#4E5492" d="M43.247,39.752c0.847,0,1.534,0.687,1.534,1.533s-0.687,1.534-1.534,1.534
		c-0.848,0-1.535-0.688-1.535-1.534S42.399,39.752,43.247,39.752"/>
	<path fill="#4D5592" d="M43.472,39.918c0.847,0,1.534,0.688,1.534,1.534s-0.687,1.533-1.534,1.533
		c-0.848,0-1.535-0.687-1.535-1.533S42.624,39.918,43.472,39.918"/>
	<path fill="#4D5693" d="M43.696,40.054c0.847,0,1.534,0.687,1.534,1.533c0,0.848-0.687,1.533-1.534,1.533
		c-0.848,0-1.535-0.686-1.535-1.533C42.162,40.741,42.849,40.054,43.696,40.054"/>
	<path fill="#4D5794" d="M43.919,40.16c0.847,0,1.534,0.687,1.534,1.533s-0.687,1.534-1.534,1.534c-0.848,0-1.534-0.688-1.534-1.534
		S43.071,40.16,43.919,40.16"/>
	<path fill="#4C5895" d="M44.14,40.237c0.847,0,1.535,0.687,1.535,1.533c0,0.848-0.688,1.533-1.535,1.533
		c-0.848,0-1.534-0.686-1.534-1.533C42.605,40.923,43.292,40.237,44.14,40.237"/>
	<path fill="#4C5995" d="M44.358,40.288c0.847,0,1.534,0.688,1.534,1.534s-0.687,1.533-1.534,1.533
		c-0.848,0-1.535-0.687-1.535-1.533S43.51,40.288,44.358,40.288"/>
	<path fill="#4C5A96" d="M44.573,40.315c0.847,0,1.534,0.688,1.534,1.534s-0.687,1.533-1.534,1.533
		c-0.848,0-1.535-0.687-1.535-1.533S43.725,40.315,44.573,40.315"/>
	<path fill="#4B5B97" d="M44.784,40.321c0.847,0,1.534,0.687,1.534,1.533s-0.687,1.532-1.534,1.532
		c-0.848,0-1.535-0.686-1.535-1.532S43.937,40.321,44.784,40.321"/>
	<path fill="#4B5C97" d="M44.991,40.305c0.847,0,1.534,0.687,1.534,1.533c0,0.848-0.687,1.533-1.534,1.533s-1.535-0.686-1.535-1.533
		C43.457,40.992,44.144,40.305,44.991,40.305"/>
	<path fill="#4A5D98" d="M45.194,40.272c0.847,0,1.534,0.687,1.534,1.533s-0.687,1.533-1.534,1.533
		c-0.848,0-1.535-0.687-1.535-1.533S44.346,40.272,45.194,40.272"/>
	<path fill="#4A5E99" d="M45.391,40.221c0.847,0,1.534,0.687,1.534,1.533c0,0.848-0.687,1.534-1.534,1.534
		c-0.848,0-1.535-0.687-1.535-1.534C43.856,40.908,44.543,40.221,45.391,40.221"/>
	<path fill="#4A5F99" d="M45.583,40.157c0.847,0,1.534,0.687,1.534,1.533c0,0.848-0.687,1.533-1.534,1.533s-1.535-0.686-1.535-1.533
		C44.048,40.843,44.735,40.157,45.583,40.157"/>
	<path fill="#49609A" d="M45.768,40.08c0.847,0,1.534,0.687,1.534,1.533s-0.687,1.533-1.534,1.533c-0.848,0-1.535-0.687-1.535-1.533
		S44.92,40.08,45.768,40.08"/>
	<path fill="#49619B" d="M45.947,39.992c0.847,0,1.534,0.687,1.534,1.533s-0.687,1.534-1.534,1.534
		c-0.848,0-1.535-0.688-1.535-1.534S45.099,39.992,45.947,39.992"/>
	<path fill="#49629B" d="M46.118,39.894c0.847,0,1.534,0.688,1.534,1.534s-0.687,1.533-1.534,1.533
		c-0.848,0-1.535-0.687-1.535-1.533S45.271,39.894,46.118,39.894"/>
	<path fill="#48639C" d="M46.282,39.791c0.848,0,1.534,0.687,1.534,1.533c0,0.848-0.687,1.534-1.534,1.534
		c-0.847,0-1.535-0.687-1.535-1.534C44.747,40.477,45.435,39.791,46.282,39.791"/>
	<path fill="#48649D" d="M46.437,39.682c0.848,0,1.534,0.687,1.534,1.533s-0.687,1.533-1.534,1.533
		c-0.847,0-1.534-0.687-1.534-1.533S45.59,39.682,46.437,39.682"/>
	<path fill="#48659D" d="M46.584,39.57c0.847,0,1.534,0.687,1.534,1.533c0,0.848-0.687,1.533-1.534,1.533
		c-0.848,0-1.535-0.686-1.535-1.533C45.049,40.256,45.736,39.57,46.584,39.57"/>
	<path fill="#47669E" d="M46.721,39.457c0.847,0,1.534,0.687,1.534,1.533s-0.687,1.534-1.534,1.534
		c-0.848,0-1.534-0.688-1.534-1.534S45.874,39.457,46.721,39.457"/>
	<path fill="#47679F" d="M46.849,39.344c0.847,0,1.534,0.686,1.534,1.533c0,0.847-0.687,1.532-1.534,1.532
		c-0.848,0-1.535-0.686-1.535-1.532C45.314,40.03,46.001,39.344,46.849,39.344"/>
	<path fill="#4768A0" d="M46.965,39.234c0.848,0,1.534,0.687,1.534,1.533S47.813,42.3,46.965,42.3c-0.847,0-1.534-0.687-1.534-1.533
		S46.118,39.234,46.965,39.234"/>
	<path fill="#4669A0" d="M47.072,39.128c0.848,0,1.534,0.687,1.534,1.533s-0.687,1.534-1.534,1.534s-1.534-0.688-1.534-1.534
		S46.224,39.128,47.072,39.128"/>
	<path fill="#466AA1" d="M47.167,39.029c0.848,0,1.535,0.687,1.535,1.533c0,0.848-0.687,1.533-1.535,1.533
		c-0.847,0-1.534-0.686-1.534-1.533C45.633,39.715,46.319,39.029,47.167,39.029"/>
	<path fill="#466BA2" d="M47.25,38.938c0.848,0,1.534,0.687,1.534,1.533c0,0.848-0.687,1.533-1.534,1.533
		c-0.847,0-1.534-0.686-1.534-1.533C45.715,39.625,46.402,38.938,47.25,38.938"/>
	<path fill="#456CA2" d="M47.32,38.858c0.847,0,1.534,0.687,1.534,1.533s-0.687,1.533-1.534,1.533c-0.848,0-1.534-0.687-1.534-1.533
		S46.473,38.858,47.32,38.858"/>
	<path fill="#456DA3" d="M47.378,38.789c0.848,0,1.534,0.687,1.534,1.533c0,0.848-0.687,1.534-1.534,1.534s-1.534-0.687-1.534-1.534
		C45.844,39.475,46.53,38.789,47.378,38.789"/>
	<path fill="#446EA4" d="M47.422,38.734c0.847,0,1.534,0.688,1.534,1.534s-0.687,1.533-1.534,1.533
		c-0.848,0-1.534-0.687-1.534-1.533S46.575,38.734,47.422,38.734"/>
	<path fill="#446FA4" d="M47.453,38.696c0.847,0,1.534,0.687,1.534,1.533c0,0.848-0.687,1.533-1.534,1.533
		c-0.848,0-1.534-0.686-1.534-1.533C45.918,39.382,46.605,38.696,47.453,38.696"/>
	<path fill="#446FA5" d="M47.468,38.674c0.848,0,1.534,0.688,1.534,1.534s-0.687,1.533-1.534,1.533
		c-0.847,0-1.534-0.687-1.534-1.533S46.621,38.674,47.468,38.674"/>
	<path fill="#4370A6" d="M47.51,38.622c0.848,0,1.535,0.687,1.535,1.533c0,0.848-0.687,1.534-1.535,1.534
		c-0.847,0-1.534-0.687-1.534-1.534C45.976,39.308,46.663,38.622,47.51,38.622"/>
	<path fill="#4371A6" d="M47.6,38.506c0.847,0,1.534,0.687,1.534,1.533c0,0.848-0.687,1.533-1.534,1.533
		c-0.848,0-1.534-0.686-1.534-1.533C46.065,39.193,46.752,38.506,47.6,38.506"/>
	<path fill="#4372A7" d="M47.687,38.387c0.847,0,1.534,0.688,1.534,1.534s-0.687,1.532-1.534,1.532
		c-0.848,0-1.534-0.686-1.534-1.532S46.839,38.387,47.687,38.387"/>
	<path fill="#4273A8" d="M47.772,38.266c0.848,0,1.534,0.687,1.534,1.534c0,0.847-0.687,1.533-1.534,1.533
		c-0.847,0-1.534-0.687-1.534-1.533C46.239,38.953,46.925,38.266,47.772,38.266"/>
	<path fill="#4274A9" d="M47.857,38.142c0.848,0,1.535,0.687,1.535,1.533c0,0.848-0.687,1.534-1.535,1.534s-1.534-0.687-1.534-1.534
		C46.323,38.829,47.009,38.142,47.857,38.142"/>
	<path fill="#4275A9" d="M47.939,38.015c0.848,0,1.535,0.687,1.535,1.534c0,0.847-0.687,1.532-1.535,1.532s-1.534-0.686-1.534-1.532
		C46.405,38.702,47.092,38.015,47.939,38.015"/>
	<path fill="#4176AA" d="M48.021,37.886c0.848,0,1.535,0.687,1.535,1.533c0,0.848-0.687,1.533-1.535,1.533s-1.534-0.686-1.534-1.533
		C46.486,38.573,47.173,37.886,48.021,37.886"/>
	<path fill="#4177AB" d="M48.1,37.753c0.848,0,1.535,0.687,1.535,1.533c0,0.848-0.687,1.534-1.535,1.534
		c-0.847,0-1.534-0.687-1.534-1.534C46.565,38.44,47.252,37.753,48.1,37.753"/>
	<path fill="#4178AB" d="M48.177,37.619c0.848,0,1.535,0.687,1.535,1.533c0,0.848-0.687,1.533-1.535,1.533
		c-0.847,0-1.534-0.686-1.534-1.533C46.643,38.305,47.33,37.619,48.177,37.619"/>
	<path fill="#4079AC" d="M48.253,37.481c0.848,0,1.535,0.687,1.535,1.533c0,0.848-0.687,1.534-1.535,1.534
		c-0.847,0-1.534-0.687-1.534-1.534C46.719,38.167,47.407,37.481,48.253,37.481"/>
	<path fill="#407AAD" d="M48.328,37.341c0.847,0,1.535,0.687,1.535,1.533c0,0.848-0.688,1.534-1.535,1.534s-1.534-0.687-1.534-1.534
		C46.794,38.028,47.481,37.341,48.328,37.341"/>
	<path fill="#3F7BAD" d="M48.401,37.199c0.847,0,1.535,0.687,1.535,1.533c0,0.848-0.688,1.534-1.535,1.534s-1.534-0.687-1.534-1.534
		C46.867,37.885,47.554,37.199,48.401,37.199"/>
	<path fill="#3F7CAE" d="M48.472,37.054c0.847,0,1.534,0.687,1.534,1.533c0,0.848-0.687,1.533-1.534,1.533s-1.535-0.686-1.535-1.533
		C46.938,37.741,47.625,37.054,48.472,37.054"/>
	<path fill="#3F7DAF" d="M48.542,36.907c0.848,0,1.535,0.687,1.535,1.533c0,0.848-0.687,1.533-1.535,1.533
		c-0.847,0-1.534-0.686-1.534-1.533C47.007,37.593,47.694,36.907,48.542,36.907"/>
	<path fill="#3E7EAF" d="M48.609,36.757c0.848,0,1.535,0.687,1.535,1.533c0,0.848-0.687,1.533-1.535,1.533
		c-0.847,0-1.534-0.686-1.534-1.533C47.075,37.444,47.762,36.757,48.609,36.757"/>
	<path fill="#3E7FB0" d="M48.676,36.605c0.848,0,1.535,0.687,1.535,1.533c0,0.848-0.687,1.534-1.535,1.534
		c-0.847,0-1.534-0.687-1.534-1.534C47.142,37.292,47.829,36.605,48.676,36.605"/>
	<path fill="#3E80B1" d="M48.74,36.452c0.848,0,1.535,0.686,1.535,1.533c0,0.847-0.687,1.533-1.535,1.533
		c-0.847,0-1.534-0.687-1.534-1.533C47.206,37.137,47.893,36.452,48.74,36.452"/>
	<path fill="#3D81B2" d="M48.803,36.295c0.848,0,1.535,0.687,1.535,1.533s-0.687,1.533-1.535,1.533
		c-0.847,0-1.534-0.687-1.534-1.533S47.956,36.295,48.803,36.295"/>
	<path fill="#3D82B2" d="M48.865,36.137c0.848,0,1.534,0.687,1.534,1.533s-0.687,1.533-1.534,1.533
		c-0.847,0-1.534-0.687-1.534-1.533S48.018,36.137,48.865,36.137"/>
	<path fill="#3D83B3" d="M48.924,35.977c0.848,0,1.535,0.686,1.535,1.533c0,0.847-0.687,1.533-1.535,1.533
		c-0.847,0-1.534-0.687-1.534-1.533C47.391,36.663,48.077,35.977,48.924,35.977"/>
	<path fill="#3C84B4" d="M48.982,35.814c0.848,0,1.535,0.687,1.535,1.533c0,0.848-0.687,1.534-1.535,1.534
		c-0.847,0-1.534-0.687-1.534-1.534C47.448,36.5,48.135,35.814,48.982,35.814"/>
	<path fill="#3C85B4" d="M49.039,35.65c0.848,0,1.535,0.687,1.535,1.533s-0.687,1.533-1.535,1.533c-0.847,0-1.534-0.687-1.534-1.533
		S48.191,35.65,49.039,35.65"/>
	<path fill="#3C86B5" d="M49.093,35.484c0.848,0,1.535,0.686,1.535,1.532c0,0.848-0.687,1.534-1.535,1.534
		c-0.847,0-1.534-0.687-1.534-1.534C47.559,36.169,48.246,35.484,49.093,35.484"/>
	<path fill="#3B87B6" d="M49.146,35.316c0.848,0,1.535,0.686,1.535,1.533c0,0.847-0.687,1.532-1.535,1.532
		c-0.847,0-1.534-0.686-1.534-1.532C47.612,36.001,48.299,35.316,49.146,35.316"/>
	<path fill="#3B88B6" d="M49.197,35.145c0.848,0,1.535,0.687,1.535,1.533c0,0.848-0.687,1.534-1.535,1.534
		c-0.847,0-1.534-0.687-1.534-1.534C47.664,35.832,48.35,35.145,49.197,35.145"/>
	<path fill="#3B89B7" d="M49.247,34.974c0.848,0,1.534,0.686,1.534,1.533c0,0.847-0.687,1.533-1.534,1.533
		c-0.847,0-1.534-0.687-1.534-1.533C47.713,35.66,48.4,34.974,49.247,34.974"/>
	<path fill="#3A8AB8" d="M49.295,34.8c0.848,0,1.534,0.687,1.534,1.533s-0.687,1.534-1.534,1.534c-0.847,0-1.534-0.688-1.534-1.534
		S48.448,34.8,49.295,34.8"/>
	<path fill="#3A8BB8" d="M49.341,34.625c0.848,0,1.535,0.687,1.535,1.533s-0.687,1.533-1.535,1.533
		c-0.847,0-1.534-0.687-1.534-1.533S48.494,34.625,49.341,34.625"/>
	<path fill="#398CB9" d="M49.385,34.449c0.848,0,1.535,0.687,1.535,1.533s-0.687,1.533-1.535,1.533
		c-0.847,0-1.534-0.687-1.534-1.533S48.538,34.449,49.385,34.449"/>
	<path fill="#398DBA" d="M49.428,34.27c0.848,0,1.535,0.687,1.535,1.533c0,0.848-0.687,1.533-1.535,1.533
		c-0.847,0-1.534-0.686-1.534-1.533C47.895,34.957,48.581,34.27,49.428,34.27"/>
	<path fill="#398EBB" d="M49.47,34.09c0.848,0,1.534,0.687,1.534,1.533c0,0.848-0.687,1.533-1.534,1.533
		c-0.847,0-1.534-0.686-1.534-1.533C47.936,34.777,48.623,34.09,49.47,34.09"/>
	<path fill="#388FBB" d="M49.509,33.91c0.848,0,1.535,0.687,1.535,1.533s-0.687,1.533-1.535,1.533c-0.847,0-1.534-0.687-1.534-1.533
		S48.662,33.91,49.509,33.91"/>
	<path fill="#3890BC" d="M49.547,33.727c0.848,0,1.534,0.687,1.534,1.533s-0.687,1.533-1.534,1.533
		c-0.847,0-1.534-0.687-1.534-1.533S48.7,33.727,49.547,33.727"/>
	<path fill="#3891BD" d="M49.583,33.542c0.848,0,1.535,0.687,1.535,1.533c0,0.848-0.687,1.534-1.535,1.534
		c-0.847,0-1.534-0.687-1.534-1.534C48.049,34.229,48.735,33.542,49.583,33.542"/>
	<path fill="#3792BD" d="M49.617,33.358c0.848,0,1.535,0.687,1.535,1.533s-0.687,1.533-1.535,1.533
		c-0.847,0-1.534-0.687-1.534-1.533S48.77,33.358,49.617,33.358"/>
	<path fill="#3793BE" d="M49.649,33.171c0.848,0,1.535,0.686,1.535,1.532c0,0.848-0.688,1.534-1.535,1.534
		c-0.847,0-1.534-0.687-1.534-1.534C48.116,33.857,48.802,33.171,49.649,33.171"/>
	<path fill="#3794BF" d="M49.681,32.983c0.848,0,1.535,0.686,1.535,1.533c0,0.848-0.687,1.534-1.535,1.534
		c-0.847,0-1.534-0.687-1.534-1.534C48.147,33.669,48.833,32.983,49.681,32.983"/>
	<path fill="#3695BF" d="M49.709,32.794c0.848,0,1.535,0.687,1.535,1.533s-0.687,1.534-1.535,1.534
		c-0.847,0-1.534-0.688-1.534-1.534S48.863,32.794,49.709,32.794"/>
	<path fill="#3696C0" d="M49.737,32.604c0.848,0,1.535,0.686,1.535,1.533c0,0.848-0.687,1.533-1.535,1.533
		c-0.847,0-1.534-0.686-1.534-1.533C48.203,33.291,48.89,32.604,49.737,32.604"/>
	<path fill="#3697C1" d="M49.763,32.414c0.848,0,1.535,0.687,1.535,1.533s-0.687,1.533-1.535,1.533
		c-0.847,0-1.534-0.687-1.534-1.533S48.916,32.414,49.763,32.414"/>
	<path fill="#3598C1" d="M49.787,32.222c0.848,0,1.535,0.686,1.535,1.533c0,0.848-0.687,1.533-1.535,1.533
		c-0.847,0-1.534-0.686-1.534-1.533C48.253,32.908,48.94,32.222,49.787,32.222"/>
	<path fill="#3599C2" d="M49.809,32.028c0.848,0,1.535,0.686,1.535,1.533c0,0.848-0.687,1.535-1.535,1.535
		c-0.847,0-1.534-0.688-1.534-1.535C48.275,32.714,48.962,32.028,49.809,32.028"/>
	<path fill="#359AC3" d="M49.83,31.834c0.848,0,1.535,0.686,1.535,1.533c0,0.847-0.687,1.533-1.535,1.533
		c-0.847,0-1.534-0.687-1.534-1.533C48.296,32.521,48.983,31.834,49.83,31.834"/>
	<path fill="#349BC4" d="M49.849,31.64c0.848,0,1.535,0.687,1.535,1.533c0,0.848-0.687,1.534-1.535,1.534
		c-0.847,0-1.534-0.687-1.534-1.534C48.314,32.326,49.001,31.64,49.849,31.64"/>
	<path fill="#349CC4" d="M49.865,31.444c0.848,0,1.535,0.687,1.535,1.533s-0.687,1.534-1.535,1.534
		c-0.847,0-1.534-0.688-1.534-1.534S49.019,31.444,49.865,31.444"/>
	<path fill="#339DC5" d="M49.881,31.248c0.848,0,1.535,0.686,1.535,1.533s-0.687,1.533-1.535,1.533
		c-0.847,0-1.534-0.686-1.534-1.533S49.034,31.248,49.881,31.248"/>
	<path fill="#339EC6" d="M49.894,31.051c0.848,0,1.535,0.686,1.535,1.533c0,0.848-0.687,1.534-1.535,1.534
		c-0.847,0-1.533-0.687-1.533-1.534C48.361,31.737,49.047,31.051,49.894,31.051"/>
	<path fill="#339FC6" d="M49.906,30.853c0.848,0,1.535,0.687,1.535,1.533c0,0.847-0.687,1.535-1.535,1.535
		c-0.847,0-1.533-0.688-1.533-1.535C48.373,31.54,49.059,30.853,49.906,30.853"/>
	<path fill="#32A0C7" d="M49.916,30.655c0.848,0,1.535,0.687,1.535,1.533c0,0.848-0.687,1.535-1.535,1.535
		c-0.847,0-1.534-0.687-1.534-1.535C48.382,31.341,49.069,30.655,49.916,30.655"/>
	<path fill="#32A1C8" d="M49.924,30.456c0.848,0,1.535,0.686,1.535,1.533c0,0.847-0.687,1.534-1.535,1.534
		c-0.847,0-1.533-0.687-1.533-1.534C48.391,31.142,49.078,30.456,49.924,30.456"/>
	<path fill="#32A2C8" d="M49.931,30.257c0.848,0,1.535,0.686,1.535,1.533c0,0.848-0.687,1.534-1.535,1.534
		c-0.847,0-1.533-0.687-1.533-1.534C48.397,30.943,49.084,30.257,49.931,30.257"/>
	<path fill="#31A3C9" d="M49.936,30.057c0.848,0,1.535,0.686,1.535,1.533c0,0.848-0.687,1.535-1.535,1.535
		c-0.847,0-1.534-0.687-1.534-1.535C48.402,30.743,49.089,30.057,49.936,30.057"/>
	<path fill="#31A4CA" d="M49.938,29.857c0.848,0,1.535,0.686,1.535,1.533c0,0.848-0.687,1.534-1.535,1.534
		c-0.847,0-1.533-0.686-1.533-1.534C48.405,30.543,49.092,29.857,49.938,29.857"/>
	<path fill="#31A5CA" d="M49.94,29.657c0.848,0,1.535,0.686,1.535,1.532c0,0.848-0.687,1.534-1.535,1.534
		c-0.847,0-1.534-0.687-1.534-1.534C48.406,30.342,49.093,29.657,49.94,29.657"/>
	<path fill="#59357C" d="M61.837,27.377c-0.847,0-1.534-0.687-1.534-1.533c0-0.847,0.687-1.534,1.534-1.534
		c0.848,0,1.535,0.687,1.535,1.534C63.372,26.69,62.685,27.377,61.837,27.377"/>
	<path fill="#58367D" d="M61.847,27.37c-0.847,0-1.533-0.687-1.533-1.533c0-0.847,0.687-1.534,1.533-1.534
		c0.848,0,1.535,0.687,1.535,1.534C63.382,26.683,62.695,27.37,61.847,27.37"/>
	<path fill="#58377E" d="M61.875,27.347c-0.847,0-1.533-0.687-1.533-1.533c0-0.847,0.687-1.534,1.533-1.534
		c0.848,0,1.535,0.687,1.535,1.534C63.411,26.66,62.724,27.347,61.875,27.347"/>
	<path fill="#58387E" d="M61.922,27.311c-0.847,0-1.534-0.687-1.534-1.533c0-0.847,0.687-1.534,1.534-1.534
		c0.848,0,1.535,0.687,1.535,1.534C63.457,26.624,62.77,27.311,61.922,27.311"/>
	<path fill="#57397F" d="M61.983,27.261c-0.847,0-1.534-0.687-1.534-1.533c0-0.847,0.687-1.534,1.534-1.534
		c0.848,0,1.535,0.687,1.535,1.534C63.518,26.574,62.831,27.261,61.983,27.261"/>
	<path fill="#573A80" d="M62.057,27.197c-0.847,0-1.534-0.687-1.534-1.533c0-0.847,0.687-1.534,1.534-1.534
		c0.848,0,1.535,0.687,1.535,1.534C63.592,26.51,62.905,27.197,62.057,27.197"/>
	<path fill="#563B80" d="M62.143,27.121c-0.847,0-1.534-0.687-1.534-1.533c0-0.847,0.687-1.534,1.534-1.534
		c0.848,0,1.535,0.687,1.535,1.534C63.677,26.434,62.991,27.121,62.143,27.121"/>
	<path fill="#563C81" d="M62.237,27.033c-0.847,0-1.534-0.687-1.534-1.533c0-0.847,0.688-1.534,1.534-1.534
		c0.848,0,1.535,0.687,1.535,1.534C63.772,26.346,63.085,27.033,62.237,27.033"/>
	<path fill="#563D82" d="M62.339,26.933c-0.847,0-1.534-0.687-1.534-1.533c0-0.847,0.687-1.534,1.534-1.534
		c0.848,0,1.535,0.687,1.535,1.534C63.875,26.246,63.188,26.933,62.339,26.933"/>
	<path fill="#553E83" d="M62.447,26.821c-0.847,0-1.534-0.687-1.534-1.533c0-0.848,0.687-1.534,1.534-1.534
		c0.848,0,1.535,0.687,1.535,1.534C63.982,26.134,63.295,26.821,62.447,26.821"/>
	<path fill="#553F83" d="M62.559,26.7c-0.847,0-1.534-0.687-1.534-1.533c0-0.848,0.687-1.534,1.534-1.534
		c0.848,0,1.535,0.687,1.535,1.534C64.094,26.013,63.407,26.7,62.559,26.7"/>
	<path fill="#554084" d="M62.672,26.568c-0.847,0-1.534-0.687-1.534-1.533c0-0.847,0.687-1.534,1.534-1.534
		c0.848,0,1.535,0.687,1.535,1.534C64.207,25.881,63.52,26.568,62.672,26.568"/>
	<path fill="#544185" d="M62.785,26.426c-0.847,0-1.534-0.687-1.534-1.533c0-0.847,0.687-1.534,1.534-1.534
		c0.848,0,1.535,0.687,1.535,1.534C64.32,25.74,63.633,26.426,62.785,26.426"/>
	<path fill="#544285" d="M62.896,26.276c-0.847,0-1.534-0.687-1.534-1.533c0-0.847,0.687-1.534,1.534-1.534
		c0.848,0,1.535,0.687,1.535,1.534C64.431,25.589,63.744,26.276,62.896,26.276"/>
	<path fill="#544386" d="M63.003,26.117c-0.847,0-1.534-0.687-1.534-1.533c0-0.848,0.687-1.534,1.534-1.534
		c0.848,0,1.535,0.687,1.535,1.534C64.538,25.43,63.851,26.117,63.003,26.117"/>
	<path fill="#534487" d="M63.104,25.95c-0.847,0-1.534-0.687-1.534-1.533c0-0.847,0.687-1.534,1.534-1.534
		c0.848,0,1.535,0.687,1.535,1.534C64.639,25.263,63.952,25.95,63.104,25.95"/>
	<path fill="#534587" d="M63.197,25.775c-0.847,0-1.534-0.687-1.534-1.533c0-0.847,0.687-1.534,1.534-1.534
		c0.848,0,1.535,0.687,1.535,1.534C64.732,25.088,64.045,25.775,63.197,25.775"/>
	<path fill="#534688" d="M63.281,25.593c-0.847,0-1.534-0.687-1.534-1.533c0-0.847,0.687-1.534,1.534-1.534
		c0.848,0,1.535,0.687,1.535,1.534C64.816,24.906,64.129,25.593,63.281,25.593"/>
	<path fill="#524789" d="M63.353,25.405c-0.847,0-1.534-0.687-1.534-1.533c0-0.847,0.687-1.534,1.534-1.534
		c0.848,0,1.535,0.687,1.535,1.534C64.888,24.718,64.201,25.405,63.353,25.405"/>
	<path fill="#524889" d="M63.412,25.211c-0.847,0-1.534-0.687-1.534-1.533c0-0.847,0.687-1.534,1.534-1.534
		c0.848,0,1.534,0.687,1.534,1.534C64.946,24.524,64.259,25.211,63.412,25.211"/>
	<path fill="#52498A" d="M63.454,25.011c-0.847,0-1.534-0.687-1.534-1.533c0-0.847,0.687-1.534,1.534-1.534
		c0.848,0,1.535,0.687,1.535,1.534C64.989,24.324,64.302,25.011,63.454,25.011"/>
	<path fill="#514A8B" d="M63.48,24.807c-0.847,0-1.534-0.687-1.534-1.533c0-0.847,0.687-1.534,1.534-1.534
		c0.848,0,1.535,0.687,1.535,1.534C65.015,24.12,64.328,24.807,63.48,24.807"/>
	<path fill="#514B8C" d="M63.486,24.598c-0.847,0-1.534-0.687-1.534-1.533c0-0.847,0.687-1.534,1.534-1.534
		c0.848,0,1.535,0.687,1.535,1.534C65.021,23.911,64.334,24.598,63.486,24.598"/>
	<path fill="#504C8C" d="M63.472,24.385c-0.847,0-1.534-0.687-1.534-1.533c0-0.847,0.687-1.534,1.534-1.534
		c0.848,0,1.535,0.687,1.535,1.534C65.006,23.698,64.32,24.385,63.472,24.385"/>
	<path fill="#504D8D" d="M63.434,24.168c-0.847,0-1.534-0.687-1.534-1.533c0-0.847,0.687-1.534,1.534-1.534
		c0.848,0,1.535,0.687,1.535,1.534C64.969,23.481,64.282,24.168,63.434,24.168"/>
	<path fill="#504E8E" d="M63.372,23.949c-0.847,0-1.534-0.687-1.534-1.533c0-0.847,0.687-1.534,1.534-1.534
		c0.848,0,1.535,0.687,1.535,1.534C64.906,23.262,64.219,23.949,63.372,23.949"/>
	<path fill="#4F4F8E" d="M63.282,23.727c-0.847,0-1.534-0.687-1.534-1.533c0-0.847,0.687-1.534,1.534-1.534
		c0.848,0,1.535,0.687,1.535,1.534C64.816,23.04,64.129,23.727,63.282,23.727"/>
	<path fill="#4F508F" d="M63.164,23.504c-0.847,0-1.534-0.687-1.534-1.533c0-0.847,0.687-1.534,1.534-1.534
		c0.848,0,1.535,0.687,1.535,1.534C64.698,22.817,64.011,23.504,63.164,23.504"/>
	<path fill="#4F5190" d="M63.014,23.279c-0.847,0-1.534-0.687-1.534-1.533c0-0.847,0.687-1.534,1.534-1.534
		c0.848,0,1.535,0.687,1.535,1.534C64.549,22.592,63.862,23.279,63.014,23.279"/>
	<path fill="#4E5290" d="M62.833,23.053c-0.847,0-1.534-0.687-1.534-1.533c0-0.847,0.687-1.534,1.534-1.534
		c0.848,0,1.534,0.687,1.534,1.534C64.367,22.366,63.681,23.053,62.833,23.053"/>
	<path fill="#4E5391" d="M62.618,22.828c-0.847,0-1.534-0.687-1.534-1.533c0-0.848,0.687-1.534,1.534-1.534
		c0.848,0,1.535,0.687,1.535,1.534C64.152,22.141,63.465,22.828,62.618,22.828"/>
	<path fill="#4E5492" d="M62.392,22.627c-0.847,0-1.534-0.687-1.534-1.533c0-0.847,0.687-1.534,1.534-1.534
		c0.848,0,1.535,0.687,1.535,1.534C63.926,21.941,63.239,22.627,62.392,22.627"/>
	<path fill="#4D5592" d="M62.166,22.461c-0.847,0-1.534-0.687-1.534-1.533c0-0.847,0.687-1.534,1.534-1.534
		c0.848,0,1.535,0.687,1.535,1.534C63.701,21.774,63.014,22.461,62.166,22.461"/>
	<path fill="#4D5693" d="M61.942,22.326c-0.847,0-1.534-0.687-1.534-1.533c0-0.848,0.687-1.534,1.534-1.534
		c0.848,0,1.534,0.687,1.534,1.534C63.476,21.639,62.79,22.326,61.942,22.326"/>
	<path fill="#4D5794" d="M61.719,22.221c-0.847,0-1.534-0.687-1.534-1.533c0-0.847,0.687-1.534,1.534-1.534
		c0.848,0,1.535,0.687,1.535,1.534C63.253,21.534,62.567,22.221,61.719,22.221"/>
	<path fill="#4C5895" d="M61.498,22.143c-0.847,0-1.534-0.687-1.534-1.533c0-0.847,0.687-1.533,1.534-1.533
		c0.848,0,1.535,0.686,1.535,1.533C63.033,21.456,62.346,22.143,61.498,22.143"/>
	<path fill="#4C5995" d="M61.28,22.092c-0.847,0-1.534-0.687-1.534-1.533c0-0.847,0.687-1.534,1.534-1.534
		c0.848,0,1.535,0.687,1.535,1.534C62.815,21.405,62.128,22.092,61.28,22.092"/>
	<path fill="#4C5A96" d="M61.065,22.064c-0.847,0-1.534-0.687-1.534-1.533c0-0.848,0.687-1.534,1.534-1.534
		c0.848,0,1.535,0.687,1.535,1.534C62.6,21.377,61.913,22.064,61.065,22.064"/>
	<path fill="#4B5B97" d="M60.854,22.06c-0.847,0-1.534-0.687-1.534-1.533c0-0.848,0.687-1.534,1.534-1.534
		c0.848,0,1.535,0.686,1.535,1.534C62.388,21.373,61.702,22.06,60.854,22.06"/>
	<path fill="#4B5C97" d="M60.646,22.075c-0.847,0-1.534-0.687-1.534-1.533c0-0.848,0.687-1.534,1.534-1.534
		c0.848,0,1.535,0.686,1.535,1.534C62.181,21.388,61.494,22.075,60.646,22.075"/>
	<path fill="#4A5D98" d="M60.444,22.108c-0.847,0-1.534-0.687-1.534-1.533c0-0.848,0.687-1.534,1.534-1.534
		c0.848,0,1.535,0.686,1.535,1.534C61.979,21.421,61.292,22.108,60.444,22.108"/>
	<path fill="#4A5E99" d="M60.247,22.158c-0.847,0-1.534-0.687-1.534-1.533c0-0.848,0.687-1.534,1.534-1.534
		c0.848,0,1.535,0.686,1.535,1.534C61.781,21.471,61.094,22.158,60.247,22.158"/>
	<path fill="#4A5F99" d="M60.055,22.223c-0.847,0-1.534-0.687-1.534-1.533c0-0.848,0.687-1.534,1.534-1.534
		c0.848,0,1.535,0.686,1.535,1.534C61.59,21.536,60.903,22.223,60.055,22.223"/>
	<path fill="#49609A" d="M59.87,22.3c-0.847,0-1.535-0.687-1.535-1.533c0-0.848,0.688-1.534,1.535-1.534s1.534,0.686,1.534,1.534
		C61.404,21.613,60.717,22.3,59.87,22.3"/>
	<path fill="#49619B" d="M59.691,22.388c-0.847,0-1.535-0.687-1.535-1.533c0-0.848,0.688-1.534,1.535-1.534s1.534,0.687,1.534,1.534
		C61.226,21.701,60.539,22.388,59.691,22.388"/>
	<path fill="#49629B" d="M59.52,22.485c-0.847,0-1.534-0.687-1.534-1.533c0-0.848,0.687-1.534,1.534-1.534
		c0.848,0,1.535,0.687,1.535,1.534C61.054,21.798,60.367,22.485,59.52,22.485"/>
	<path fill="#48639C" d="M59.356,22.589c-0.847,0-1.534-0.687-1.534-1.533c0-0.848,0.687-1.534,1.534-1.534
		c0.848,0,1.535,0.687,1.535,1.534C60.891,21.902,60.204,22.589,59.356,22.589"/>
	<path fill="#48649D" d="M59.201,22.698c-0.847,0-1.534-0.687-1.534-1.533c0-0.847,0.687-1.534,1.534-1.534
		c0.848,0,1.534,0.687,1.534,1.534C60.735,22.011,60.048,22.698,59.201,22.698"/>
	<path fill="#48659D" d="M59.054,22.81c-0.848,0-1.534-0.687-1.534-1.533c0-0.848,0.687-1.534,1.534-1.534
		c0.847,0,1.534,0.686,1.534,1.534C60.588,22.123,59.901,22.81,59.054,22.81"/>
	<path fill="#47669E" d="M58.917,22.923c-0.848,0-1.534-0.687-1.534-1.533c0-0.848,0.687-1.534,1.534-1.534
		c0.847,0,1.534,0.686,1.534,1.534C60.451,22.236,59.764,22.923,58.917,22.923"/>
	<path fill="#47679F" d="M58.79,23.036c-0.848,0-1.534-0.687-1.534-1.533c0-0.848,0.687-1.534,1.534-1.534
		c0.847,0,1.534,0.687,1.534,1.534C60.324,22.349,59.637,23.036,58.79,23.036"/>
	<path fill="#4768A0" d="M58.672,23.146c-0.848,0-1.534-0.687-1.534-1.533c0-0.848,0.687-1.534,1.534-1.534s1.534,0.686,1.534,1.534
		C60.207,22.459,59.52,23.146,58.672,23.146"/>
	<path fill="#4669A0" d="M58.566,23.251c-0.847,0-1.534-0.687-1.534-1.533c0-0.848,0.687-1.534,1.534-1.534
		c0.848,0,1.534,0.686,1.534,1.534C60.1,22.565,59.414,23.251,58.566,23.251"/>
	<path fill="#466AA1" d="M58.471,23.351c-0.848,0-1.534-0.687-1.534-1.533c0-0.848,0.687-1.534,1.534-1.534
		c0.847,0,1.534,0.686,1.534,1.534C60.005,22.664,59.318,23.351,58.471,23.351"/>
	<path fill="#466BA2" d="M58.388,23.441c-0.847,0-1.534-0.687-1.534-1.533c0-0.848,0.687-1.534,1.534-1.534
		c0.848,0,1.534,0.687,1.534,1.534C59.922,22.755,59.236,23.441,58.388,23.441"/>
	<path fill="#456CA2" d="M58.317,23.522c-0.847,0-1.534-0.687-1.534-1.533c0-0.847,0.687-1.534,1.534-1.534
		c0.848,0,1.535,0.687,1.535,1.534C59.852,22.835,59.165,23.522,58.317,23.522"/>
	<path fill="#456DA3" d="M58.26,23.591c-0.847,0-1.534-0.687-1.534-1.533c0-0.848,0.687-1.534,1.534-1.534
		c0.848,0,1.535,0.686,1.535,1.534C59.794,22.904,59.107,23.591,58.26,23.591"/>
	<path fill="#446EA4" d="M58.216,23.645c-0.848,0-1.534-0.687-1.534-1.533c0-0.848,0.687-1.534,1.534-1.534
		c0.847,0,1.534,0.686,1.534,1.534C59.75,22.958,59.063,23.645,58.216,23.645"/>
	<path fill="#446FA4" d="M58.186,23.684c-0.848,0-1.534-0.687-1.534-1.533c0-0.848,0.687-1.534,1.534-1.534
		c0.847,0,1.534,0.686,1.534,1.534C59.72,22.998,59.033,23.684,58.186,23.684"/>
	<path fill="#446FA5" d="M58.169,23.705c-0.847,0-1.534-0.687-1.534-1.533c0-0.848,0.687-1.534,1.534-1.534
		c0.848,0,1.534,0.686,1.534,1.534C59.704,23.018,59.017,23.705,58.169,23.705"/>
	<path fill="#4370A6" d="M58.127,23.758c-0.848,0-1.534-0.687-1.534-1.533c0-0.848,0.687-1.534,1.534-1.534
		c0.847,0,1.534,0.687,1.534,1.534C59.662,23.071,58.975,23.758,58.127,23.758"/>
	<path fill="#4371A6" d="M58.039,23.874c-0.848,0-1.535-0.687-1.535-1.533c0-0.848,0.687-1.534,1.535-1.534
		c0.847,0,1.534,0.686,1.534,1.534C59.573,23.187,58.886,23.874,58.039,23.874"/>
	<path fill="#4372A7" d="M57.951,23.992c-0.848,0-1.534-0.687-1.534-1.533c0-0.848,0.687-1.534,1.534-1.534
		c0.847,0,1.534,0.687,1.534,1.534C59.485,23.305,58.798,23.992,57.951,23.992"/>
	<path fill="#4273A8" d="M57.865,24.113c-0.848,0-1.534-0.687-1.534-1.533c0-0.848,0.687-1.534,1.534-1.534s1.534,0.686,1.534,1.534
		C59.399,23.426,58.713,24.113,57.865,24.113"/>
	<path fill="#4274A9" d="M57.781,24.237c-0.848,0-1.535-0.687-1.535-1.533c0-0.848,0.687-1.534,1.535-1.534
		c0.847,0,1.534,0.686,1.534,1.534C59.315,23.55,58.628,24.237,57.781,24.237"/>
	<path fill="#4275A9" d="M57.698,24.364c-0.847,0-1.534-0.687-1.534-1.533c0-0.848,0.687-1.534,1.534-1.534
		c0.848,0,1.534,0.687,1.534,1.534C59.232,23.677,58.546,24.364,57.698,24.364"/>
	<path fill="#4176AA" d="M57.618,24.493c-0.848,0-1.535-0.687-1.535-1.533c0-0.848,0.687-1.534,1.535-1.534
		c0.847,0,1.534,0.686,1.534,1.534C59.152,23.807,58.465,24.493,57.618,24.493"/>
	<path fill="#4177AB" d="M57.538,24.626c-0.848,0-1.535-0.687-1.535-1.533c0-0.848,0.687-1.534,1.535-1.534s1.534,0.686,1.534,1.534
		C59.072,23.939,58.386,24.626,57.538,24.626"/>
	<path fill="#4178AB" d="M57.46,24.761c-0.848,0-1.535-0.687-1.535-1.533c0-0.848,0.687-1.534,1.535-1.534
		c0.847,0,1.534,0.686,1.534,1.534C58.995,24.074,58.308,24.761,57.46,24.761"/>
	<path fill="#4079AC" d="M57.384,24.898c-0.848,0-1.535-0.687-1.535-1.533c0-0.848,0.687-1.534,1.535-1.534
		c0.847,0,1.534,0.687,1.534,1.534C58.918,24.211,58.231,24.898,57.384,24.898"/>
	<path fill="#407AAD" d="M57.31,25.038c-0.847,0-1.534-0.687-1.534-1.533c0-0.848,0.687-1.534,1.534-1.534s1.535,0.686,1.535,1.534
		C58.844,24.352,58.157,25.038,57.31,25.038"/>
	<path fill="#3F7BAD" d="M57.237,25.181c-0.848,0-1.535-0.687-1.535-1.533c0-0.848,0.687-1.534,1.535-1.534
		c0.847,0,1.534,0.686,1.534,1.534C58.771,24.494,58.084,25.181,57.237,25.181"/>
	<path fill="#3F7CAE" d="M57.166,25.325c-0.848,0-1.535-0.687-1.535-1.533c0-0.848,0.687-1.534,1.535-1.534
		c0.847,0,1.534,0.687,1.534,1.534C58.7,24.639,58.013,25.325,57.166,25.325"/>
	<path fill="#3F7DAF" d="M57.096,25.473c-0.847,0-1.535-0.687-1.535-1.533c0-0.848,0.688-1.534,1.535-1.534s1.534,0.686,1.534,1.534
		C58.63,24.786,57.943,25.473,57.096,25.473"/>
	<path fill="#3E7EAF" d="M57.028,25.622c-0.848,0-1.535-0.687-1.535-1.533c0-0.848,0.687-1.534,1.535-1.534
		c0.847,0,1.534,0.687,1.534,1.534C58.562,24.936,57.875,25.622,57.028,25.622"/>
	<path fill="#3E7FB0" d="M56.962,25.774c-0.848,0-1.534-0.687-1.534-1.533c0-0.848,0.687-1.534,1.534-1.534
		c0.847,0,1.534,0.687,1.534,1.534C58.496,25.087,57.809,25.774,56.962,25.774"/>
	<path fill="#3E80B1" d="M56.897,25.928c-0.848,0-1.535-0.687-1.535-1.533c0-0.848,0.687-1.534,1.535-1.534
		c0.847,0,1.534,0.686,1.534,1.534C58.431,25.241,57.745,25.928,56.897,25.928"/>
	<path fill="#3D81B2" d="M56.834,26.084c-0.848,0-1.535-0.687-1.535-1.533c0-0.848,0.687-1.534,1.535-1.534
		c0.847,0,1.534,0.686,1.534,1.534C58.369,25.397,57.682,26.084,56.834,26.084"/>
	<path fill="#3D82B2" d="M56.773,26.242c-0.848,0-1.535-0.687-1.535-1.533c0-0.848,0.687-1.534,1.535-1.534
		c0.847,0,1.534,0.687,1.534,1.534C58.307,25.556,57.621,26.242,56.773,26.242"/>
	<path fill="#3D83B3" d="M56.713,26.403c-0.848,0-1.535-0.687-1.535-1.533c0-0.848,0.687-1.534,1.535-1.534
		c0.847,0,1.534,0.687,1.534,1.534C58.248,25.716,57.561,26.403,56.713,26.403"/>
	<path fill="#3C84B4" d="M56.656,26.565c-0.848,0-1.535-0.687-1.535-1.533c0-0.848,0.687-1.534,1.535-1.534
		c0.847,0,1.534,0.686,1.534,1.534C58.189,25.878,57.503,26.565,56.656,26.565"/>
	<path fill="#3C85B4" d="M56.599,26.729c-0.848,0-1.535-0.687-1.535-1.533c0-0.848,0.687-1.534,1.535-1.534
		c0.847,0,1.534,0.687,1.534,1.534C58.133,26.043,57.446,26.729,56.599,26.729"/>
	<path fill="#3C86B5" d="M56.545,26.896c-0.848,0-1.535-0.687-1.535-1.533c0-0.848,0.687-1.534,1.535-1.534
		c0.847,0,1.534,0.686,1.534,1.534C58.079,26.209,57.392,26.896,56.545,26.896"/>
	<path fill="#3B87B6" d="M56.492,27.064c-0.848,0-1.535-0.687-1.535-1.533c0-0.848,0.687-1.534,1.535-1.534
		c0.847,0,1.534,0.687,1.534,1.534C58.025,26.377,57.339,27.064,56.492,27.064"/>
	<path fill="#3B88B6" d="M56.44,27.234c-0.848,0-1.535-0.687-1.535-1.533c0-0.848,0.687-1.534,1.535-1.534
		c0.847,0,1.534,0.687,1.534,1.534C57.974,26.547,57.288,27.234,56.44,27.234"/>
	<path fill="#3B89B7" d="M56.391,27.406c-0.848,0-1.534-0.687-1.534-1.533c0-0.848,0.687-1.534,1.534-1.534
		c0.847,0,1.534,0.686,1.534,1.534C57.925,26.719,57.238,27.406,56.391,27.406"/>
	<path fill="#3A8AB8" d="M56.343,27.579c-0.848,0-1.535-0.687-1.535-1.533c0-0.848,0.687-1.534,1.535-1.534
		c0.847,0,1.534,0.687,1.534,1.534C57.877,26.893,57.19,27.579,56.343,27.579"/>
	<path fill="#3A8BB8" d="M56.297,27.754c-0.848,0-1.535-0.687-1.535-1.533c0-0.848,0.687-1.534,1.535-1.534
		c0.847,0,1.534,0.687,1.534,1.534C57.831,27.067,57.144,27.754,56.297,27.754"/>
	<path fill="#398CB9" d="M56.252,27.931c-0.848,0-1.534-0.687-1.534-1.533c0-0.848,0.687-1.534,1.534-1.534
		c0.847,0,1.534,0.687,1.534,1.534C57.786,27.244,57.099,27.931,56.252,27.931"/>
	<path fill="#398DBA" d="M56.209,28.109c-0.848,0-1.534-0.687-1.534-1.533c0-0.848,0.687-1.534,1.534-1.534
		c0.847,0,1.534,0.686,1.534,1.534C57.743,27.422,57.056,28.109,56.209,28.109"/>
	<path fill="#398EBB" d="M56.168,28.289c-0.848,0-1.534-0.687-1.534-1.533c0-0.848,0.687-1.534,1.534-1.534
		c0.847,0,1.534,0.686,1.534,1.534C57.702,27.603,57.015,28.289,56.168,28.289"/>
	<path fill="#388FBB" d="M56.129,28.47c-0.848,0-1.535-0.687-1.535-1.533c0-0.848,0.687-1.534,1.535-1.534
		c0.847,0,1.534,0.686,1.534,1.534C57.663,27.784,56.976,28.47,56.129,28.47"/>
	<path fill="#3890BC" d="M56.091,28.653c-0.848,0-1.534-0.687-1.534-1.533c0-0.848,0.687-1.534,1.534-1.534
		c0.847,0,1.534,0.686,1.534,1.534C57.625,27.966,56.938,28.653,56.091,28.653"/>
	<path fill="#3891BD" d="M56.055,28.836c-0.848,0-1.535-0.687-1.535-1.532c0-0.848,0.687-1.534,1.535-1.534
		c0.847,0,1.534,0.686,1.534,1.534C57.589,28.15,56.902,28.836,56.055,28.836"/>
	<path fill="#3792BD" d="M56.021,29.022c-0.848,0-1.535-0.687-1.535-1.533c0-0.848,0.687-1.534,1.535-1.534
		c0.847,0,1.534,0.687,1.534,1.534C57.555,28.335,56.868,29.022,56.021,29.022"/>
	<path fill="#3793BE" d="M55.988,29.208c-0.848,0-1.535-0.687-1.535-1.533c0-0.848,0.687-1.534,1.535-1.534
		c0.847,0,1.534,0.687,1.534,1.534C57.522,28.522,56.835,29.208,55.988,29.208"/>
	<path fill="#3794BF" d="M55.957,29.396c-0.848,0-1.535-0.687-1.535-1.532c0-0.848,0.687-1.534,1.535-1.534
		c0.847,0,1.534,0.686,1.534,1.534C57.491,28.709,56.804,29.396,55.957,29.396"/>
	<path fill="#3695BF" d="M55.928,29.585c-0.848,0-1.535-0.687-1.535-1.533c0-0.848,0.687-1.534,1.535-1.534
		c0.847,0,1.534,0.686,1.534,1.534C57.462,28.898,56.775,29.585,55.928,29.585"/>
	<path fill="#3696C0" d="M55.9,29.775c-0.848,0-1.535-0.687-1.535-1.532c0-0.848,0.687-1.534,1.535-1.534
		c0.847,0,1.534,0.686,1.534,1.534C57.435,29.088,56.748,29.775,55.9,29.775"/>
	<path fill="#3697C1" d="M55.875,29.966c-0.848,0-1.535-0.687-1.535-1.533c0-0.848,0.687-1.534,1.535-1.534
		c0.847,0,1.534,0.686,1.534,1.534C57.409,29.28,56.722,29.966,55.875,29.966"/>
	<path fill="#3598C1" d="M55.851,30.158c-0.848,0-1.535-0.687-1.535-1.533c0-0.848,0.687-1.534,1.535-1.534
		c0.847,0,1.534,0.687,1.534,1.534C57.385,29.472,56.698,30.158,55.851,30.158"/>
	<path fill="#3599C2" d="M55.829,30.351c-0.848,0-1.535-0.687-1.535-1.532c0-0.848,0.688-1.535,1.535-1.535
		c0.847,0,1.534,0.687,1.534,1.535C57.362,29.665,56.675,30.351,55.829,30.351"/>
	<path fill="#359AC3" d="M55.808,30.545c-0.848,0-1.535-0.687-1.535-1.533c0-0.848,0.687-1.534,1.535-1.534
		c0.847,0,1.534,0.686,1.534,1.534C57.342,29.859,56.655,30.545,55.808,30.545"/>
	<path fill="#349BC4" d="M55.789,30.74c-0.848,0-1.535-0.687-1.535-1.533c0-0.848,0.687-1.534,1.535-1.534
		c0.847,0,1.534,0.686,1.534,1.534C57.323,30.054,56.636,30.74,55.789,30.74"/>
	<path fill="#349CC4" d="M55.772,30.936c-0.848,0-1.535-0.686-1.535-1.533c0-0.848,0.687-1.534,1.535-1.534
		c0.847,0,1.534,0.686,1.534,1.534C57.306,30.25,56.619,30.936,55.772,30.936"/>
	<path fill="#339DC5" d="M55.757,31.132c-0.848,0-1.535-0.686-1.535-1.533c0-0.848,0.687-1.534,1.535-1.534
		c0.847,0,1.534,0.687,1.534,1.534C57.291,30.446,56.604,31.132,55.757,31.132"/>
	<path fill="#339EC6" d="M55.744,31.329c-0.848,0-1.535-0.686-1.535-1.532c0-0.848,0.687-1.535,1.535-1.535
		c0.847,0,1.533,0.687,1.533,1.535C57.277,30.643,56.59,31.329,55.744,31.329"/>
	<path fill="#339FC6" d="M55.732,31.526c-0.848,0-1.535-0.686-1.535-1.533c0-0.848,0.687-1.534,1.535-1.534
		c0.847,0,1.533,0.687,1.533,1.534C57.265,30.84,56.579,31.526,55.732,31.526"/>
	<path fill="#32A0C7" d="M55.722,31.725c-0.848,0-1.535-0.686-1.535-1.532c0-0.848,0.687-1.535,1.535-1.535
		c0.847,0,1.534,0.687,1.534,1.535C57.255,31.039,56.568,31.725,55.722,31.725"/>
	<path fill="#32A1C8" d="M55.713,31.923c-0.848,0-1.535-0.686-1.535-1.532c0-0.848,0.687-1.535,1.535-1.535
		c0.847,0,1.533,0.687,1.533,1.535C57.247,31.237,56.56,31.923,55.713,31.923"/>
	<path fill="#32A2C8" d="M55.707,32.123c-0.848,0-1.535-0.686-1.535-1.532c0-0.848,0.687-1.534,1.535-1.534
		c0.847,0,1.533,0.686,1.533,1.534C57.24,31.437,56.554,32.123,55.707,32.123"/>
	<path fill="#31A3C9" d="M55.702,32.323c-0.848,0-1.535-0.687-1.535-1.533c0-0.848,0.687-1.534,1.535-1.534
		c0.847,0,1.534,0.686,1.534,1.534C57.236,31.636,56.549,32.323,55.702,32.323"/>
	<path fill="#31A4CA" d="M55.699,32.522c-0.848,0-1.535-0.686-1.535-1.533c0-0.848,0.687-1.534,1.535-1.534
		c0.847,0,1.534,0.687,1.534,1.534C57.233,31.836,56.546,32.522,55.699,32.522"/>
	<path fill="#31A5CA" d="M55.698,32.723c-0.848,0-1.535-0.686-1.535-1.533c0-0.848,0.687-1.534,1.535-1.534
		c0.847,0,1.533,0.686,1.533,1.534C57.231,32.037,56.545,32.723,55.698,32.723"/>
	<path fill="#59357C" d="M61.837,35.002c-0.847,0-1.534,0.687-1.534,1.533s0.687,1.533,1.534,1.533c0.848,0,1.535-0.687,1.535-1.533
		S62.685,35.002,61.837,35.002"/>
	<path fill="#58367D" d="M61.847,35.01c-0.847,0-1.533,0.688-1.533,1.534s0.687,1.532,1.533,1.532c0.848,0,1.535-0.686,1.535-1.532
		S62.695,35.01,61.847,35.01"/>
	<path fill="#58377E" d="M61.876,35.033c-0.847,0-1.534,0.688-1.534,1.534s0.687,1.532,1.534,1.532c0.848,0,1.535-0.686,1.535-1.532
		S62.724,35.033,61.876,35.033"/>
	<path fill="#58387E" d="M61.922,35.069c-0.847,0-1.534,0.688-1.534,1.534s0.687,1.533,1.534,1.533c0.848,0,1.535-0.687,1.535-1.533
		S62.77,35.069,61.922,35.069"/>
	<path fill="#57397F" d="M61.983,35.12c-0.847,0-1.534,0.687-1.534,1.533c0,0.848,0.687,1.533,1.534,1.533
		c0.848,0,1.535-0.686,1.535-1.533C63.518,35.806,62.831,35.12,61.983,35.12"/>
	<path fill="#573A80" d="M62.057,35.183c-0.847,0-1.534,0.687-1.534,1.533c0,0.848,0.687,1.533,1.534,1.533
		c0.848,0,1.535-0.686,1.535-1.533C63.592,35.87,62.905,35.183,62.057,35.183"/>
	<path fill="#563B80" d="M62.143,35.259c-0.847,0-1.534,0.687-1.534,1.533s0.687,1.533,1.534,1.533c0.848,0,1.535-0.687,1.535-1.533
		S62.991,35.259,62.143,35.259"/>
	<path fill="#563C81" d="M62.237,35.347c-0.847,0-1.534,0.688-1.534,1.534s0.687,1.532,1.534,1.532c0.848,0,1.535-0.686,1.535-1.532
		S63.085,35.347,62.237,35.347"/>
	<path fill="#563D82" d="M62.339,35.448c-0.847,0-1.534,0.687-1.534,1.533s0.687,1.533,1.534,1.533c0.848,0,1.535-0.687,1.535-1.533
		S63.188,35.448,62.339,35.448"/>
	<path fill="#553E83" d="M62.447,35.558c-0.847,0-1.534,0.688-1.534,1.534s0.687,1.533,1.534,1.533c0.848,0,1.535-0.687,1.535-1.533
		S63.295,35.558,62.447,35.558"/>
	<path fill="#553F83" d="M62.559,35.68c-0.847,0-1.534,0.688-1.534,1.534s0.687,1.532,1.534,1.532c0.848,0,1.535-0.686,1.535-1.532
		S63.407,35.68,62.559,35.68"/>
	<path fill="#554084" d="M62.672,35.812c-0.847,0-1.534,0.687-1.534,1.534c0,0.847,0.687,1.532,1.534,1.532
		c0.848,0,1.535-0.686,1.535-1.532C64.207,36.499,63.52,35.812,62.672,35.812"/>
	<path fill="#544185" d="M62.785,35.954c-0.847,0-1.534,0.687-1.534,1.533s0.687,1.533,1.534,1.533c0.848,0,1.535-0.687,1.535-1.533
		S63.633,35.954,62.785,35.954"/>
	<path fill="#544285" d="M62.896,36.104c-0.847,0-1.534,0.687-1.534,1.534c0,0.847,0.687,1.532,1.534,1.532
		c0.848,0,1.535-0.686,1.535-1.532C64.431,36.791,63.744,36.104,62.896,36.104"/>
	<path fill="#544386" d="M63.003,36.263c-0.847,0-1.534,0.687-1.534,1.533s0.687,1.533,1.534,1.533c0.848,0,1.535-0.687,1.535-1.533
		S63.851,36.263,63.003,36.263"/>
	<path fill="#534487" d="M63.104,36.43c-0.847,0-1.534,0.687-1.534,1.533c0,0.848,0.687,1.533,1.534,1.533
		c0.848,0,1.535-0.686,1.535-1.533C64.639,37.117,63.952,36.43,63.104,36.43"/>
	<path fill="#534587" d="M63.197,36.605c-0.847,0-1.534,0.687-1.534,1.533s0.687,1.533,1.534,1.533c0.848,0,1.535-0.687,1.535-1.533
		S64.045,36.605,63.197,36.605"/>
	<path fill="#534688" d="M63.281,36.787c-0.847,0-1.534,0.687-1.534,1.533s0.687,1.533,1.534,1.533c0.848,0,1.535-0.687,1.535-1.533
		S64.129,36.787,63.281,36.787"/>
	<path fill="#524789" d="M63.353,36.975c-0.847,0-1.534,0.687-1.534,1.533s0.687,1.533,1.534,1.533c0.848,0,1.535-0.687,1.535-1.533
		S64.201,36.975,63.353,36.975"/>
	<path fill="#524889" d="M63.412,37.169c-0.847,0-1.534,0.687-1.534,1.533s0.687,1.533,1.534,1.533c0.848,0,1.534-0.687,1.534-1.533
		S64.259,37.169,63.412,37.169"/>
	<path fill="#52498A" d="M63.455,37.369c-0.847,0-1.534,0.687-1.534,1.534c0,0.847,0.687,1.532,1.534,1.532
		c0.848,0,1.535-0.686,1.535-1.532C64.989,38.055,64.302,37.369,63.455,37.369"/>
	<path fill="#514A8B" d="M63.48,37.574c-0.847,0-1.534,0.687-1.534,1.533s0.687,1.533,1.534,1.533c0.848,0,1.535-0.687,1.535-1.533
		S64.328,37.574,63.48,37.574"/>
	<path fill="#514B8C" d="M63.486,37.783c-0.847,0-1.534,0.687-1.534,1.533s0.687,1.533,1.534,1.533c0.848,0,1.535-0.687,1.535-1.533
		S64.334,37.783,63.486,37.783"/>
	<path fill="#504C8C" d="M63.472,37.996c-0.847,0-1.534,0.687-1.534,1.533s0.687,1.533,1.534,1.533c0.848,0,1.535-0.687,1.535-1.533
		S64.32,37.996,63.472,37.996"/>
	<path fill="#504D8D" d="M63.434,38.211c-0.847,0-1.534,0.688-1.534,1.534s0.687,1.533,1.534,1.533c0.848,0,1.535-0.687,1.535-1.533
		S64.282,38.211,63.434,38.211"/>
	<path fill="#504E8E" d="M63.371,38.431c-0.847,0-1.534,0.687-1.534,1.533s0.687,1.534,1.534,1.534c0.848,0,1.535-0.688,1.535-1.534
		S64.219,38.431,63.371,38.431"/>
	<path fill="#4F4F8E" d="M63.282,38.653c-0.847,0-1.534,0.687-1.534,1.533s0.687,1.533,1.534,1.533c0.848,0,1.535-0.687,1.535-1.533
		S64.129,38.653,63.282,38.653"/>
	<path fill="#4F508F" d="M63.163,38.876c-0.847,0-1.534,0.687-1.534,1.533s0.687,1.533,1.534,1.533c0.848,0,1.535-0.687,1.535-1.533
		S64.011,38.876,63.163,38.876"/>
	<path fill="#4F5190" d="M63.014,39.101c-0.847,0-1.534,0.687-1.534,1.533c0,0.848,0.687,1.534,1.534,1.534
		c0.848,0,1.535-0.687,1.535-1.534C64.549,39.788,63.862,39.101,63.014,39.101"/>
	<path fill="#4E5290" d="M62.833,39.327c-0.847,0-1.534,0.688-1.534,1.533c0,0.848,0.687,1.534,1.534,1.534
		c0.848,0,1.535-0.687,1.535-1.534C64.367,40.014,63.681,39.327,62.833,39.327"/>
	<path fill="#4E5391" d="M62.617,39.551c-0.847,0-1.534,0.688-1.534,1.534s0.687,1.533,1.534,1.533c0.848,0,1.535-0.687,1.535-1.533
		S63.465,39.551,62.617,39.551"/>
	<path fill="#4E5492" d="M62.391,39.752c-0.847,0-1.534,0.687-1.534,1.533s0.687,1.534,1.534,1.534c0.848,0,1.535-0.688,1.535-1.534
		S63.239,39.752,62.391,39.752"/>
	<path fill="#4D5592" d="M62.166,39.918c-0.847,0-1.534,0.688-1.534,1.534s0.687,1.532,1.534,1.532c0.848,0,1.534-0.686,1.534-1.532
		S63.014,39.918,62.166,39.918"/>
	<path fill="#4D5693" d="M61.941,40.054c-0.847,0-1.534,0.687-1.534,1.533c0,0.848,0.687,1.533,1.534,1.533
		c0.848,0,1.535-0.686,1.535-1.533C63.476,40.741,62.789,40.054,61.941,40.054"/>
	<path fill="#4D5794" d="M61.719,40.16c-0.847,0-1.534,0.687-1.534,1.533s0.687,1.533,1.534,1.533c0.848,0,1.535-0.687,1.535-1.533
		S62.566,40.16,61.719,40.16"/>
	<path fill="#4C5895" d="M61.498,40.237c-0.847,0-1.534,0.687-1.534,1.533c0,0.848,0.687,1.533,1.534,1.533
		c0.848,0,1.535-0.686,1.535-1.533C63.033,40.923,62.346,40.237,61.498,40.237"/>
	<path fill="#4C5995" d="M61.28,40.288c-0.847,0-1.534,0.688-1.534,1.534s0.687,1.533,1.534,1.533c0.848,0,1.535-0.687,1.535-1.533
		S62.127,40.288,61.28,40.288"/>
	<path fill="#4C5A96" d="M61.065,40.315c-0.847,0-1.534,0.688-1.534,1.534s0.687,1.532,1.534,1.532c0.848,0,1.535-0.686,1.535-1.532
		S61.913,40.315,61.065,40.315"/>
	<path fill="#4B5B97" d="M60.854,40.321c-0.847,0-1.534,0.687-1.534,1.533s0.687,1.532,1.534,1.532c0.848,0,1.535-0.686,1.535-1.532
		S61.701,40.321,60.854,40.321"/>
	<path fill="#4B5C97" d="M60.646,40.305c-0.847,0-1.534,0.687-1.534,1.533c0,0.848,0.687,1.533,1.534,1.533s1.535-0.686,1.535-1.533
		C62.181,40.992,61.494,40.305,60.646,40.305"/>
	<path fill="#4A5D98" d="M60.444,40.272c-0.847,0-1.534,0.687-1.534,1.533s0.687,1.533,1.534,1.533c0.848,0,1.535-0.687,1.535-1.533
		S61.292,40.272,60.444,40.272"/>
	<path fill="#4A5E99" d="M60.247,40.221c-0.847,0-1.534,0.687-1.534,1.533c0,0.848,0.687,1.533,1.534,1.533
		c0.848,0,1.535-0.686,1.535-1.533C61.781,40.908,61.094,40.221,60.247,40.221"/>
	<path fill="#4A5F99" d="M60.055,40.157c-0.847,0-1.534,0.687-1.534,1.533c0,0.848,0.687,1.534,1.534,1.534s1.535-0.687,1.535-1.534
		C61.59,40.843,60.902,40.157,60.055,40.157"/>
	<path fill="#49609A" d="M59.87,40.08c-0.847,0-1.534,0.687-1.534,1.533c0,0.848,0.687,1.533,1.534,1.533
		c0.848,0,1.535-0.686,1.535-1.533C61.404,40.766,60.717,40.08,59.87,40.08"/>
	<path fill="#49619B" d="M59.691,39.992c-0.847,0-1.534,0.687-1.534,1.533s0.687,1.534,1.534,1.534c0.848,0,1.535-0.688,1.535-1.534
		S60.539,39.992,59.691,39.992"/>
	<path fill="#49629B" d="M59.52,39.894c-0.847,0-1.534,0.688-1.534,1.534s0.687,1.532,1.534,1.532c0.848,0,1.535-0.686,1.535-1.532
		S60.367,39.894,59.52,39.894"/>
	<path fill="#48639C" d="M59.356,39.791c-0.848,0-1.534,0.687-1.534,1.533c0,0.848,0.687,1.534,1.534,1.534
		c0.847,0,1.535-0.687,1.535-1.534C60.891,40.477,60.203,39.791,59.356,39.791"/>
	<path fill="#48649D" d="M59.201,39.682c-0.848,0-1.534,0.687-1.534,1.533s0.687,1.533,1.534,1.533c0.847,0,1.534-0.687,1.534-1.533
		S60.048,39.682,59.201,39.682"/>
	<path fill="#48659D" d="M59.054,39.57c-0.848,0-1.534,0.687-1.534,1.533c0,0.848,0.687,1.533,1.534,1.533
		c0.847,0,1.534-0.686,1.534-1.533C60.588,40.256,59.901,39.57,59.054,39.57"/>
	<path fill="#47669E" d="M58.917,39.457c-0.848,0-1.534,0.687-1.534,1.533s0.687,1.533,1.534,1.533c0.847,0,1.534-0.687,1.534-1.533
		S59.764,39.457,58.917,39.457"/>
	<path fill="#47679F" d="M58.789,39.344c-0.847,0-1.534,0.687-1.534,1.533s0.687,1.532,1.534,1.532c0.848,0,1.535-0.686,1.535-1.532
		S59.637,39.344,58.789,39.344"/>
	<path fill="#4768A0" d="M58.672,39.234c-0.848,0-1.534,0.687-1.534,1.533s0.687,1.533,1.534,1.533c0.847,0,1.534-0.687,1.534-1.533
		S59.52,39.234,58.672,39.234"/>
	<path fill="#4669A0" d="M58.566,39.128c-0.847,0-1.534,0.687-1.534,1.533s0.687,1.533,1.534,1.533c0.848,0,1.534-0.687,1.534-1.533
		S59.414,39.128,58.566,39.128"/>
	<path fill="#466AA1" d="M58.471,39.029c-0.848,0-1.534,0.687-1.534,1.533c0,0.848,0.687,1.533,1.534,1.533
		c0.847,0,1.534-0.686,1.534-1.533C60.005,39.715,59.318,39.029,58.471,39.029"/>
	<path fill="#466BA2" d="M58.388,38.938c-0.847,0-1.534,0.687-1.534,1.533c0,0.848,0.687,1.533,1.534,1.533
		c0.848,0,1.534-0.686,1.534-1.533C59.922,39.625,59.236,38.938,58.388,38.938"/>
	<path fill="#456CA2" d="M58.317,38.858c-0.847,0-1.534,0.687-1.534,1.533s0.687,1.533,1.534,1.533c0.848,0,1.535-0.687,1.535-1.533
		S59.165,38.858,58.317,38.858"/>
	<path fill="#456DA3" d="M58.26,38.789c-0.847,0-1.534,0.687-1.534,1.533c0,0.848,0.687,1.533,1.534,1.533
		c0.848,0,1.535-0.686,1.535-1.533C59.794,39.475,59.107,38.789,58.26,38.789"/>
	<path fill="#446EA4" d="M58.216,38.734c-0.848,0-1.534,0.688-1.534,1.534s0.687,1.533,1.534,1.533c0.847,0,1.534-0.687,1.534-1.533
		S59.063,38.734,58.216,38.734"/>
	<path fill="#446FA4" d="M58.186,38.696c-0.848,0-1.534,0.687-1.534,1.533c0,0.848,0.687,1.533,1.534,1.533
		c0.847,0,1.534-0.686,1.534-1.533C59.72,39.382,59.033,38.696,58.186,38.696"/>
	<path fill="#446FA5" d="M58.169,38.674c-0.847,0-1.534,0.688-1.534,1.534s0.687,1.532,1.534,1.532c0.848,0,1.534-0.686,1.534-1.532
		S59.017,38.674,58.169,38.674"/>
	<path fill="#4370A6" d="M58.127,38.622c-0.848,0-1.534,0.687-1.534,1.533c0,0.848,0.687,1.533,1.534,1.533
		c0.847,0,1.534-0.686,1.534-1.533C59.662,39.308,58.975,38.622,58.127,38.622"/>
	<path fill="#4371A6" d="M58.039,38.506c-0.848,0-1.535,0.687-1.535,1.533c0,0.848,0.687,1.533,1.535,1.533
		c0.847,0,1.534-0.686,1.534-1.533C59.573,39.193,58.886,38.506,58.039,38.506"/>
	<path fill="#4372A7" d="M57.951,38.387c-0.848,0-1.534,0.688-1.534,1.534s0.687,1.532,1.534,1.532c0.847,0,1.534-0.686,1.534-1.532
		S58.798,38.387,57.951,38.387"/>
	<path fill="#4273A8" d="M57.865,38.266c-0.848,0-1.534,0.687-1.534,1.534c0,0.847,0.687,1.533,1.534,1.533s1.534-0.687,1.534-1.533
		C59.399,38.953,58.713,38.266,57.865,38.266"/>
	<path fill="#4274A9" d="M57.781,38.142c-0.847,0-1.535,0.687-1.535,1.533c0,0.848,0.688,1.534,1.535,1.534
		c0.848,0,1.534-0.687,1.534-1.534C59.315,38.829,58.628,38.142,57.781,38.142"/>
	<path fill="#4275A9" d="M57.698,38.015c-0.847,0-1.534,0.687-1.534,1.534c0,0.847,0.687,1.532,1.534,1.532
		c0.848,0,1.534-0.686,1.534-1.532C59.232,38.702,58.546,38.015,57.698,38.015"/>
	<path fill="#4176AA" d="M57.617,37.886c-0.847,0-1.534,0.687-1.534,1.533c0,0.848,0.687,1.533,1.534,1.533
		c0.848,0,1.534-0.686,1.534-1.533C59.151,38.573,58.465,37.886,57.617,37.886"/>
	<path fill="#4177AB" d="M57.538,37.753c-0.848,0-1.535,0.687-1.535,1.533c0,0.848,0.687,1.533,1.535,1.533s1.534-0.686,1.534-1.533
		C59.072,38.44,58.386,37.753,57.538,37.753"/>
	<path fill="#4178AB" d="M57.46,37.619c-0.848,0-1.535,0.687-1.535,1.533c0,0.848,0.687,1.533,1.535,1.533
		c0.847,0,1.534-0.686,1.534-1.533C58.995,38.305,58.308,37.619,57.46,37.619"/>
	<path fill="#4079AC" d="M57.384,37.481c-0.848,0-1.535,0.688-1.535,1.533c0,0.848,0.687,1.534,1.535,1.534
		c0.847,0,1.534-0.687,1.534-1.534C58.918,38.168,58.231,37.481,57.384,37.481"/>
	<path fill="#407AAD" d="M57.31,37.341c-0.847,0-1.534,0.687-1.534,1.533c0,0.848,0.687,1.534,1.534,1.534s1.535-0.687,1.535-1.534
		C58.844,38.028,58.157,37.341,57.31,37.341"/>
	<path fill="#3F7BAD" d="M57.237,37.199c-0.848,0-1.535,0.687-1.535,1.533c0,0.848,0.687,1.533,1.535,1.533
		c0.847,0,1.534-0.686,1.534-1.533C58.771,37.885,58.084,37.199,57.237,37.199"/>
	<path fill="#3F7CAE" d="M57.166,37.054c-0.847,0-1.535,0.687-1.535,1.533c0,0.848,0.688,1.533,1.535,1.533s1.534-0.686,1.534-1.533
		C58.7,37.741,58.013,37.054,57.166,37.054"/>
	<path fill="#3F7DAF" d="M57.096,36.907c-0.848,0-1.535,0.687-1.535,1.533c0,0.848,0.687,1.534,1.535,1.534
		c0.847,0,1.534-0.687,1.534-1.534C58.63,37.593,57.943,36.907,57.096,36.907"/>
	<path fill="#3E7EAF" d="M57.028,36.757c-0.848,0-1.535,0.687-1.535,1.533c0,0.848,0.687,1.534,1.535,1.534
		c0.847,0,1.534-0.687,1.534-1.534C58.562,37.444,57.875,36.757,57.028,36.757"/>
	<path fill="#3E7FB0" d="M56.962,36.605c-0.848,0-1.534,0.687-1.534,1.533c0,0.848,0.687,1.534,1.534,1.534
		c0.847,0,1.534-0.687,1.534-1.534C58.496,37.292,57.809,36.605,56.962,36.605"/>
	<path fill="#3E80B1" d="M56.897,36.452c-0.848,0-1.535,0.686-1.535,1.533s0.687,1.533,1.535,1.533c0.847,0,1.534-0.686,1.534-1.533
		S57.745,36.452,56.897,36.452"/>
	<path fill="#3D81B2" d="M56.834,36.295c-0.848,0-1.535,0.687-1.535,1.533s0.687,1.533,1.535,1.533c0.847,0,1.534-0.687,1.534-1.533
		S57.682,36.295,56.834,36.295"/>
	<path fill="#3D82B2" d="M56.773,36.137c-0.848,0-1.534,0.687-1.534,1.533s0.687,1.533,1.534,1.533c0.847,0,1.534-0.687,1.534-1.533
		S57.62,36.137,56.773,36.137"/>
	<path fill="#3D83B3" d="M56.713,35.977c-0.848,0-1.535,0.686-1.535,1.533c0,0.847,0.687,1.533,1.535,1.533
		c0.847,0,1.534-0.687,1.534-1.533C58.248,36.663,57.561,35.977,56.713,35.977"/>
	<path fill="#3C84B4" d="M56.656,35.814c-0.848,0-1.535,0.687-1.535,1.533c0,0.848,0.687,1.534,1.535,1.534
		c0.847,0,1.534-0.687,1.534-1.534C58.189,36.5,57.503,35.814,56.656,35.814"/>
	<path fill="#3C85B4" d="M56.599,35.65c-0.848,0-1.535,0.687-1.535,1.533s0.687,1.534,1.535,1.534c0.847,0,1.534-0.688,1.534-1.534
		S57.446,35.65,56.599,35.65"/>
	<path fill="#3C86B5" d="M56.545,35.484c-0.848,0-1.535,0.686-1.535,1.532c0,0.848,0.687,1.534,1.535,1.534
		c0.847,0,1.534-0.687,1.534-1.534C58.079,36.169,57.392,35.484,56.545,35.484"/>
	<path fill="#3B87B6" d="M56.492,35.316c-0.848,0-1.535,0.686-1.535,1.533c0,0.847,0.687,1.533,1.535,1.533
		c0.847,0,1.534-0.687,1.534-1.533C58.025,36.001,57.339,35.316,56.492,35.316"/>
	<path fill="#3B88B6" d="M56.44,35.145c-0.848,0-1.535,0.687-1.535,1.533c0,0.848,0.687,1.534,1.535,1.534
		c0.847,0,1.534-0.687,1.534-1.534C57.974,35.832,57.288,35.145,56.44,35.145"/>
	<path fill="#3B89B7" d="M56.391,34.974c-0.848,0-1.534,0.687-1.534,1.533s0.687,1.533,1.534,1.533c0.847,0,1.534-0.687,1.534-1.533
		S57.238,34.974,56.391,34.974"/>
	<path fill="#3A8AB8" d="M56.343,34.8c-0.848,0-1.535,0.687-1.535,1.533s0.687,1.533,1.535,1.533c0.847,0,1.534-0.687,1.534-1.533
		S57.19,34.8,56.343,34.8"/>
	<path fill="#3A8BB8" d="M56.297,34.625c-0.848,0-1.535,0.687-1.535,1.533s0.687,1.533,1.535,1.533c0.847,0,1.534-0.687,1.534-1.533
		S57.144,34.625,56.297,34.625"/>
	<path fill="#398CB9" d="M56.252,34.449c-0.848,0-1.534,0.687-1.534,1.533s0.687,1.533,1.534,1.533c0.847,0,1.534-0.687,1.534-1.533
		S57.099,34.449,56.252,34.449"/>
	<path fill="#398DBA" d="M56.209,34.271c-0.848,0-1.534,0.686-1.534,1.533c0,0.847,0.687,1.532,1.534,1.532
		c0.847,0,1.534-0.686,1.534-1.532C57.743,34.957,57.056,34.271,56.209,34.271"/>
	<path fill="#398EBB" d="M56.168,34.09c-0.848,0-1.534,0.687-1.534,1.533c0,0.848,0.687,1.533,1.534,1.533
		c0.847,0,1.534-0.686,1.534-1.533C57.702,34.777,57.015,34.09,56.168,34.09"/>
	<path fill="#388FBB" d="M56.129,33.91c-0.848,0-1.535,0.687-1.535,1.533s0.687,1.533,1.535,1.533c0.847,0,1.534-0.687,1.534-1.533
		S56.976,33.91,56.129,33.91"/>
	<path fill="#3890BC" d="M56.091,33.727c-0.848,0-1.534,0.687-1.534,1.533s0.687,1.533,1.534,1.533c0.847,0,1.534-0.687,1.534-1.533
		S56.938,33.727,56.091,33.727"/>
	<path fill="#3891BD" d="M56.055,33.542c-0.848,0-1.535,0.687-1.535,1.533c0,0.848,0.687,1.534,1.535,1.534
		c0.847,0,1.534-0.687,1.534-1.534C57.589,34.229,56.902,33.542,56.055,33.542"/>
	<path fill="#3792BD" d="M56.021,33.358c-0.848,0-1.535,0.687-1.535,1.533s0.687,1.533,1.535,1.533c0.847,0,1.534-0.687,1.534-1.533
		S56.868,33.358,56.021,33.358"/>
	<path fill="#3793BE" d="M55.988,33.171c-0.848,0-1.535,0.686-1.535,1.532c0,0.848,0.687,1.534,1.535,1.534
		c0.847,0,1.534-0.687,1.534-1.534C57.522,33.857,56.835,33.171,55.988,33.171"/>
	<path fill="#3794BF" d="M55.957,32.983c-0.848,0-1.535,0.686-1.535,1.533c0,0.848,0.687,1.534,1.535,1.534
		c0.847,0,1.534-0.687,1.534-1.534C57.491,33.669,56.804,32.983,55.957,32.983"/>
	<path fill="#3695BF" d="M55.928,32.794c-0.848,0-1.535,0.687-1.535,1.533s0.687,1.533,1.535,1.533c0.847,0,1.534-0.687,1.534-1.533
		S56.775,32.794,55.928,32.794"/>
	<path fill="#3696C0" d="M55.9,32.604c-0.848,0-1.535,0.686-1.535,1.533c0,0.848,0.687,1.534,1.535,1.534
		c0.847,0,1.534-0.687,1.534-1.534C57.435,33.291,56.748,32.604,55.9,32.604"/>
	<path fill="#3697C1" d="M55.875,32.414c-0.848,0-1.535,0.687-1.535,1.533s0.687,1.533,1.535,1.533c0.847,0,1.534-0.687,1.534-1.533
		S56.722,32.414,55.875,32.414"/>
	<path fill="#3598C1" d="M55.851,32.222c-0.848,0-1.535,0.686-1.535,1.533c0,0.848,0.687,1.533,1.535,1.533
		c0.847,0,1.534-0.686,1.534-1.533C57.385,32.908,56.698,32.222,55.851,32.222"/>
	<path fill="#3599C2" d="M55.829,32.028c-0.848,0-1.535,0.686-1.535,1.533c0,0.848,0.688,1.535,1.535,1.535
		c0.847,0,1.534-0.688,1.534-1.535C57.362,32.714,56.675,32.028,55.829,32.028"/>
	<path fill="#359AC3" d="M55.808,31.834c-0.848,0-1.535,0.686-1.535,1.533c0,0.847,0.687,1.533,1.535,1.533
		c0.847,0,1.534-0.687,1.534-1.533C57.342,32.521,56.655,31.834,55.808,31.834"/>
	<path fill="#349BC4" d="M55.789,31.64c-0.848,0-1.535,0.687-1.535,1.533c0,0.848,0.687,1.534,1.535,1.534
		c0.847,0,1.534-0.687,1.534-1.534C57.323,32.326,56.636,31.64,55.789,31.64"/>
	<path fill="#349CC4" d="M55.772,31.444c-0.848,0-1.535,0.687-1.535,1.533s0.687,1.533,1.535,1.533c0.847,0,1.533-0.687,1.533-1.533
		S56.619,31.444,55.772,31.444"/>
	<path fill="#339DC5" d="M55.757,31.248c-0.848,0-1.535,0.686-1.535,1.533s0.687,1.534,1.535,1.534c0.847,0,1.534-0.687,1.534-1.534
		S56.604,31.248,55.757,31.248"/>
	<path fill="#339EC6" d="M55.744,31.051c-0.848,0-1.535,0.686-1.535,1.533c0,0.848,0.687,1.534,1.535,1.534
		c0.847,0,1.533-0.687,1.533-1.534C57.277,31.737,56.59,31.051,55.744,31.051"/>
	<path fill="#339FC6" d="M55.732,30.853c-0.848,0-1.535,0.687-1.535,1.533c0,0.847,0.687,1.535,1.535,1.535
		c0.847,0,1.533-0.688,1.533-1.535C57.265,31.54,56.579,30.853,55.732,30.853"/>
	<path fill="#32A0C7" d="M55.722,30.655c-0.848,0-1.535,0.687-1.535,1.533c0,0.848,0.687,1.535,1.535,1.535
		c0.847,0,1.534-0.687,1.534-1.535C57.255,31.341,56.568,30.655,55.722,30.655"/>
	<path fill="#32A1C8" d="M55.713,30.456c-0.848,0-1.535,0.686-1.535,1.533c0,0.847,0.687,1.534,1.535,1.534
		c0.847,0,1.533-0.687,1.533-1.534C57.247,31.142,56.56,30.456,55.713,30.456"/>
	<path fill="#32A2C8" d="M55.707,30.257c-0.848,0-1.535,0.686-1.535,1.533c0,0.848,0.687,1.534,1.535,1.534
		c0.847,0,1.533-0.687,1.533-1.534C57.24,30.943,56.554,30.257,55.707,30.257"/>
	<path fill="#31A3C9" d="M55.702,30.057c-0.848,0-1.535,0.686-1.535,1.533c0,0.848,0.687,1.534,1.535,1.534
		c0.847,0,1.534-0.686,1.534-1.534C57.236,30.743,56.549,30.057,55.702,30.057"/>
	<path fill="#31A4CA" d="M55.699,29.857c-0.848,0-1.535,0.686-1.535,1.533c0,0.848,0.687,1.534,1.535,1.534
		c0.847,0,1.534-0.686,1.534-1.534C57.233,30.543,56.546,29.857,55.699,29.857"/>
	<path fill="#31A5CA" d="M55.698,29.657c-0.848,0-1.535,0.686-1.535,1.532c0,0.848,0.687,1.534,1.535,1.534
		c0.847,0,1.533-0.687,1.533-1.534C57.231,30.342,56.545,29.657,55.698,29.657"/>
	<line fill="none" stroke="#59357B" stroke-width="5" stroke-miterlimit="10" x1="138.914" y1="0" x2="138.914" y2="65.25"/>
	<path fill="#59357B" d="M169.62,37.997c-0.429,0.161-3.111,1.637-7.323,1.637c-6.787,0-10.221-3.567-10.221-10.328
		c0-6.76,3.434-10.328,10.489-10.328c2.924,0,5.15,0.832,5.15,0.832l-0.617,3.112c0,0-1.851-0.671-4.533-0.671
		c-4.614,0-6.52,2.173-6.52,7.056c0,4.883,1.905,7.056,6.251,7.056c1.422,0,2.656-0.215,3.515-0.402v-3.917h-4.829v-3.166h8.638
		V37.997z"/>
	<path fill="#59357B" d="M186.44,32.524c0,4.185-2.764,6.975-7.056,6.975s-7.082-2.79-7.082-6.975s2.79-6.975,7.082-6.975
		S186.44,28.339,186.44,32.524 M176.059,32.524c0,2.333,1.287,3.89,3.326,3.89s3.3-1.557,3.3-3.89c0-2.334-1.261-3.89-3.3-3.89
		S176.059,30.19,176.059,32.524"/>
	<path fill="#59357B" d="M203.045,22.599c-1.717,0-2.521,0.644-2.521,2.709v0.51h4.158v3.085h-4.158v10.328h-3.756V28.903h-2.146
		v-3.085h2.146v-0.644c0-3.139,1.557-5.794,6.277-5.794h1.932v3.219H203.045z"/>
	<path fill="#59357B" d="M219.651,32.524c0,4.185-2.764,6.975-7.056,6.975c-4.293,0-7.083-2.79-7.083-6.975s2.79-6.975,7.083-6.975
		C216.888,25.55,219.651,28.339,219.651,32.524 M209.27,32.524c0,2.333,1.287,3.89,3.326,3.89c2.038,0,3.299-1.557,3.299-3.89
		c0-2.334-1.261-3.89-3.299-3.89C210.557,28.634,209.27,30.19,209.27,32.524"/>
	<path fill="#59357B" d="M231.91,25.657l-0.402,3.299c-0.295-0.053-0.992-0.187-1.689-0.187c-1.985,0-3.729,1.153-3.729,3.326v7.136
		h-3.756V25.818h3.756v1.985c0.912-1.288,2.388-2.253,4.48-2.253C230.917,25.549,231.562,25.603,231.91,25.657"/>
	<polygon fill="#59357B" points="255.142,39.231 255.142,26.193 250.394,34.322 249.052,34.322 244.304,26.193 244.304,39.231 
		240.494,39.231 240.494,19.379 244.304,19.379 249.723,29.117 255.142,19.379 258.95,19.379 258.95,39.231 	"/>
	<path fill="#59357B" d="M276.253,39.231c-2.038,0-3.299-0.697-3.729-2.119c-0.858,1.529-2.709,2.389-4.99,2.389
		c-3.434,0-5.23-1.825-5.23-5.125v-8.558h3.755v7.699c0,2.039,0.967,2.87,2.603,2.87c1.985,0,2.897-1.261,2.951-2.736l-0.026-7.86
		h3.782v9.067c0,0.806,0.401,1.154,1.368,1.154h0.59v3.219H276.253z"/>
	<path fill="#59357B" d="M289.29,26.274l-0.402,2.871c-0.321-0.081-2.28-0.618-4.399-0.618c-1.636,0-2.146,0.376-2.146,0.913
		c0,0.509,0.482,0.724,2.763,1.422c2.334,0.724,4.829,1.502,4.829,4.292c0,2.629-1.771,4.346-5.956,4.346
		c-2.924,0-5.312-0.778-5.445-0.832l0.51-3.004c0.376,0.107,2.683,0.831,5.017,0.831c1.797,0,2.199-0.456,2.199-1.046
		c0-0.725-0.67-0.939-2.87-1.637c-2.763-0.885-4.722-1.583-4.722-4.158c0-2.87,2.173-4.104,5.58-4.104
		C286.903,25.549,289.103,26.193,289.29,26.274"/>
	<path fill="#59357B" d="M296.507,21.123c0,1.181-0.966,2.146-2.146,2.146s-2.146-0.965-2.146-2.146s0.965-2.146,2.146-2.146
		S296.507,19.942,296.507,21.123 M292.482,25.817h3.757v13.414h-3.757V25.817z"/>
	<path fill="#59357B" d="M309.893,26.032l-0.482,2.978c0,0-1.503-0.375-2.925-0.375c-2.468,0-3.809,1.18-3.809,3.917
		c0,2.656,1.287,3.782,3.46,3.863c0.617,0.026,2.093,0,3.354-0.456L310,38.91c-0.858,0.375-2.441,0.59-3.81,0.59
		c-4.748,0-7.27-2.521-7.27-7.002c0-4.506,2.575-6.948,7.162-6.948C308.122,25.549,309.893,26.032,309.893,26.032"/>
</g>
</svg>
