<svg xmlns="http://www.w3.org/2000/svg" xmlns:xlink="http://www.w3.org/1999/xlink"><symbol id="svg-icon--arrow-down" viewBox="0 0 24 24">
<path d="M21,4.5l3,3.057L12,19.5L0,7.557L3,4.5l9,9L21,4.5z"/>
</symbol><symbol id="svg-icon--arrow-left" viewBox="0 0 24 24">
<path d="M19.5,21.001l-3.057,3.001l-11.943-12l11.943-12L19.5,3.003l-9,9L19.5,21.001z"/>
</symbol><symbol id="svg-icon--arrow-right" viewBox="0 0 4 7">
    <!-- Generator: Sketch 39.1 (31720) - http://www.bohemiancoding.com/sketch -->
    <title>bullet</title>
    <desc>Created with Sketch.</desc>
    
    <g id="Homepagina" stroke="none" stroke-width="1" fill="none" fill-rule="evenodd">
        <g id="Landingspagina-&quot;Bouwheren&quot;" transform="translate(-365.000000, -203.000000)" fill="currentColor">
            <g id="Navigatie" transform="translate(37.000000, 144.000000)">
                <path d="M329.109252,65.3487046 L331.800575,62.7235446 C331.803525,62.7206671 331.807507,62.71966 331.81031,62.7167825 C331.937162,62.5931931 331.999998,62.4296061 331.999998,62.2665947 C332.00044,62.1035833 331.937752,61.9407158 331.81031,61.816407 C331.807507,61.8136734 331.803525,61.8125223 331.800575,61.8096448 L329.109252,59.1850604 C328.856286,58.9383132 328.442543,58.9383132 328.190167,59.1850604 C327.937349,59.4318076 327.937349,59.8353795 328.190167,60.0815512 L330.430428,62.2665947 L328.189725,64.4523576 C327.936758,64.6989609 327.936758,65.1025329 328.189725,65.3487046 C328.442543,65.5948763 328.856286,65.5948763 329.109252,65.3487046" id="bullet"/>
            </g>
        </g>
    </g>
</symbol><symbol id="svg-icon--arrow-up" viewBox="0 0 24 24">
<path d="M3,19.502l-3-3.057L12,4.502l12,11.943l-3.001,3.057l-9-9L3,19.502z"/>
</symbol><symbol id="svg-icon--calendar" viewBox="0 0 24 24"><path d="M20 20h-4v-4h4v4zm-6-10h-4v4h4v-4zm6 0h-4v4h4v-4zm-12 6h-4v4h4v-4zm6 0h-4v4h4v-4zm-6-6h-4v4h4v-4zm16-8v22h-24v-22h3v1c0 1.103.897 2 2 2s2-.897 2-2v-1h10v1c0 1.103.897 2 2 2s2-.897 2-2v-1h3zm-2 6h-20v14h20v-14zm-2-7c0-.552-.447-1-1-1s-1 .448-1 1v2c0 .552.447 1 1 1s1-.448 1-1v-2zm-14 2c0 .552-.447 1-1 1s-1-.448-1-1v-2c0-.552.447-1 1-1s1 .448 1 1v2z"/></symbol><symbol id="svg-icon--checkmark" viewBox="0 0 24 24"><path d="M20.285 2l-11.285 11.567-5.286-5.011-3.714 3.716 9 8.728 15-15.285z"/></symbol><symbol id="svg-icon--clippy">
  <path d="M128 768h256v64H128v-64z m320-384H128v64h320v-64z m128 192V448L384 640l192 192V704h320V576H576z m-288-64H128v64h160v-64zM128 704h160v-64H128v64z m576 64h64v128c-1 18-7 33-19 45s-27 18-45 19H64c-35 0-64-29-64-64V192c0-35 29-64 64-64h192C256 57 313 0 384 0s128 57 128 128h192c35 0 64 29 64 64v320h-64V320H64v576h640V768zM128 256h512c0-35-29-64-64-64h-64c-35 0-64-29-64-64s-29-64-64-64-64 29-64 64-29 64-64 64h-64c-35 0-64 29-64 64z"/>
</symbol><symbol id="svg-icon--clock" viewBox="0 0 15 15">
    <!-- Generator: Sketch 39.1 (31720) - http://www.bohemiancoding.com/sketch -->
    <title>Clock icon</title>
    <desc>Created with Sketch.</desc>
    
    <g id="Symbols" stroke="none" stroke-width="1" fill="none" fill-rule="evenodd" stroke-linecap="round" stroke-linejoin="round">
        <g id="Nieuwsitem-#1" transform="translate(0.000000, -388.000000)" stroke="#CECECE" stroke-width="2">
            <g id="Date" transform="translate(1.000000, 386.000000)">
                <g id="Clock-icon" transform="translate(0.000000, 3.000000)">
                    <polyline id="Stroke-1" points="9 8 6 8 6 3"/>
                    <path d="M13,6.5 C13,10.0900662 10.0897145,13 6.50022655,13 C2.91028546,13 0,10.0900662 0,6.5 C0,2.90993377 2.91028546,0 6.50022655,0 C10.0897145,0 13,2.90993377 13,6.5 L13,6.5 Z" id="Stroke-2"/>
                </g>
            </g>
        </g>
    </g>
</symbol><symbol id="svg-icon--cross" viewBox="0 0 24 24"><path d="M24 20.188l-8.315-8.209 8.2-8.282-3.697-3.697-8.212 8.318-8.31-8.203-3.666 3.666 8.321 8.24-8.206 8.313 3.666 3.666 8.237-8.318 8.285 8.203z"/></symbol><symbol id="svg-icon--darr" viewBox="0 0 24 24">
<path d="M23.001,13.027l-2.828-2.847l-6.176,6.175V0.002h-3.991v16.354L3.83,10.181l-2.828,2.847l11,10.975L23.001,13.027z"/>
</symbol><symbol id="svg-icon--double-arrow-left" viewBox="0 0 10 10.078">
<path id="bullet" d="M4.349,0.284l-4.05,4.049C0.294,4.337,0.288,4.339,0.284,4.344c-0.189,0.19-0.285,0.443-0.285,0.694
	s0.094,0.503,0.285,0.695c0.004,0.004,0.01,0.006,0.015,0.01l4.05,4.048c0.38,0.381,1.003,0.381,1.382,0
	c0.38-0.38,0.38-1.003,0-1.383l-3.37-3.37l3.371-3.371c0.38-0.381,0.38-1.004,0-1.383C5.352-0.095,4.729-0.095,4.349,0.284z
	 M8.331,0.284L4.282,4.333C4.278,4.337,4.271,4.339,4.267,4.344c-0.189,0.19-0.285,0.443-0.285,0.694s0.094,0.503,0.285,0.695
	c0.004,0.004,0.01,0.006,0.015,0.01l4.05,4.048c0.381,0.381,1.003,0.381,1.383,0c0.381-0.38,0.381-1.003,0-1.383l-3.371-3.37
	l3.37-3.371c0.381-0.381,0.381-1.004,0-1.383C9.333-0.095,8.71-0.095,8.331,0.284z"/>
</symbol><symbol id="svg-icon--double-arrow-right" viewBox="0 0 10 10.077">
<path id="bullet" d="M5.65,9.793L9.7,5.744c0.005-0.004,0.011-0.006,0.015-0.011C9.905,5.542,10,5.29,10,5.039
	S9.906,4.536,9.715,4.344C9.711,4.34,9.705,4.338,9.7,4.334L5.65,0.286c-0.38-0.381-1.003-0.381-1.382,0
	c-0.38,0.38-0.38,1.003,0,1.383l3.371,3.37L4.267,8.41c-0.38,0.381-0.38,1.003,0,1.383C4.647,10.172,5.27,10.172,5.65,9.793z
	 M1.668,9.793l4.049-4.049c0.004-0.004,0.011-0.006,0.015-0.011c0.19-0.19,0.285-0.443,0.285-0.694S5.924,4.536,5.732,4.344
	C5.729,4.34,5.722,4.338,5.718,4.334L1.668,0.286c-0.381-0.381-1.003-0.381-1.383,0c-0.381,0.38-0.381,1.003,0,1.383l3.371,3.37
	L0.286,8.41c-0.381,0.381-0.381,1.003,0,1.383C0.666,10.172,1.289,10.172,1.668,9.793z"/>
</symbol><symbol id="svg-icon--download" viewBox="0 0 24 24"><path d="M6 13h4v-7h4v7h4l-6 6-6-6zm16-1c0 5.514-4.486 10-10 10s-10-4.486-10-10 4.486-10 10-10 10 4.486 10 10zm2 0c0-6.627-5.373-12-12-12s-12 5.373-12 12 5.373 12 12 12 12-5.373 12-12z"/></symbol><symbol id="svg-icon--email" viewBox="0 0 24 24"><path d="M0 3v18h24v-18h-24zm21.518 2l-9.518 7.713-9.518-7.713h19.036zm-19.518 14v-11.817l10 8.104 10-8.104v11.817h-20z"/></symbol><symbol id="svg-icon--external-link" viewBox="0 0 50 50">
<g id="Icons" opacity="0.75">
	<g id="external">
		<polygon id="box" fill="#010101" points="0,0 18.75,0 18.75,6.25 6.25,6.25 6.25,43.75 43.75,43.75 43.75,31.25 50,31.25 50,50 
			0,50 		"/>
		<polygon id="arrow_13_" fill="#010101" points="26.318,0 50,0 50,23.682 41.119,14.801 27.795,28.125 21.875,22.208 35.199,8.881 
					"/>
	</g>
</g>
<g id="Guides" display="none">
</g>
</symbol><symbol id="svg-icon--facebook" viewBox="0 0 29 29">
    <!-- Generator: Sketch 39.1 (31720) - http://www.bohemiancoding.com/sketch -->
    <title>Shape</title>
    <desc>Created with Sketch.</desc>
    
    <g id="Symbols" stroke="none" stroke-width="1" fill="none" fill-rule="evenodd">
        <g id="Footer" transform="translate(-1130.000000, -100.000000)" fill="#3B5998">
            <g id="iconmonstr-facebook-2-(1)" transform="translate(1130.000000, 100.000000)">
                <path d="M0,0 L0,29 L29,29 L29,0 L0,0 L0,0 Z M19.3333333,8.45833333 L17.0097083,8.45833333 C16.265375,8.45833333 15.7083333,8.76283333 15.7083333,9.53254167 L15.7083333,10.875 L19.3333333,10.875 L19.0445417,14.5 L15.7083333,14.5 L15.7083333,24.1666667 L12.0833333,24.1666667 L12.0833333,14.5 L9.66666667,14.5 L9.66666667,10.875 L12.0833333,10.875 L12.0833333,8.551375 C12.0833333,6.108125 13.369,4.83333333 16.265375,4.83333333 L19.3333333,4.83333333 L19.3333333,8.45833333 L19.3333333,8.45833333 Z" id="Shape"/>
            </g>
        </g>
    </g>
</symbol><symbol id="svg-icon--file" viewBox="0 0 24 24"><path d="M16 0h-14v24h20v-18l-6-6zm0 3l3 3h-3v-3zm-12 19v-20h10v6h6v14h-16z"/></symbol><symbol id="svg-icon--hamburger" viewBox="0 0 24 24"><path d="M24 6h-24v-4h24v4zm0 4h-24v4h24v-4zm0 8h-24v4h24v-4z"/></symbol><symbol id="svg-icon--house" viewBox="0.252 0.013 21.167 20.315">
<path fill="#B3D334" d="M17.888,20.328h-4.706c-0.553,0-1-0.447-1-1v-6.343H9.459v6.343c0,0.553-0.448,1-1,1H3.782
	c-0.912,0-1.654-0.748-1.654-1.668V11.35c-0.782,0-1.185-0.304-1.401-0.565C0.01,9.919,0.116,8.617,0.967,7.882l8.525-7.384
	c0.691-0.599,1.766-0.647,2.505-0.123c0.066,0.034,0.128,0.075,0.183,0.123l8.525,7.385c0.849,0.733,0.956,2.035,0.239,2.902
	c-0.216,0.261-0.653,0.566-1.402,0.565v7.311C19.542,19.58,18.8,20.328,17.888,20.328z M14.182,18.328h3.36v-8.174
	c0-0.325,0.157-0.629,0.422-0.816c0.267-0.188,0.605-0.235,0.911-0.126c0.098,0.034,0.27,0.081,0.438,0.111L10.987,2.11
	c-0.051-0.03-0.099-0.063-0.143-0.101L2.365,9.317c0.187-0.031,0.353-0.079,0.43-0.106C3.101,9.103,3.441,9.15,3.706,9.338
	c0.265,0.188,0.422,0.492,0.422,0.816v8.174h3.331v-6.343c0-0.553,0.448-1,1-1h4.723c0.553,0,1,0.447,1,1V18.328z"/>
</symbol><symbol id="svg-icon--info" viewBox="0 0 24 24"><path d="M12 0c-6.627 0-12 5.373-12 12s5.373 12 12 12 12-5.373 12-12-5.373-12-12-12zm-.001 5.75c.69 0 1.251.56 1.251 1.25s-.561 1.25-1.251 1.25-1.249-.56-1.249-1.25.559-1.25 1.249-1.25zm2.001 12.25h-4v-1c.484-.179 1-.201 1-.735v-4.467c0-.534-.516-.618-1-.797v-1h3v6.265c0 .535.517.558 1 .735v.999z"/></symbol><symbol id="svg-icon--larr" viewBox="0 0 24 24">
<path d="M10.975,23l2.847-2.828l-6.175-6.176H24v-3.992H7.646l6.175-6.176L10.975,1L0,12L10.975,23z"/>
</symbol><symbol id="svg-icon--linkedin" viewBox="0 0 29 29">
    <!-- Generator: Sketch 39.1 (31720) - http://www.bohemiancoding.com/sketch -->
    <title>iconmonstr-linkedin-2</title>
    <desc>Created with Sketch.</desc>
    
    <g id="Symbols" stroke="none" stroke-width="1" fill="none" fill-rule="evenodd">
        <g id="Footer" transform="translate(-1208.000000, -100.000000)" fill="#0077B5">
            <g id="iconmonstr-linkedin-2" transform="translate(1208.000000, 100.000000)">
                <path d="M0,0 L0,29 L29,29 L29,0 L0,0 L0,0 Z M9.66666667,22.9583333 L6.04166667,22.9583333 L6.04166667,9.66666667 L9.66666667,9.66666667 L9.66666667,22.9583333 L9.66666667,22.9583333 Z M7.85416667,8.1345 C6.68691667,8.1345 5.73958333,7.17991667 5.73958333,6.003 C5.73958333,4.82608333 6.68691667,3.8715 7.85416667,3.8715 C9.02141667,3.8715 9.96875,4.82608333 9.96875,6.003 C9.96875,7.17991667 9.022625,8.1345 7.85416667,8.1345 L7.85416667,8.1345 Z M24.1666667,22.9583333 L20.5416667,22.9583333 L20.5416667,16.1868333 C20.5416667,12.1171667 15.7083333,12.4252917 15.7083333,16.1868333 L15.7083333,22.9583333 L12.0833333,22.9583333 L12.0833333,9.66666667 L15.7083333,9.66666667 L15.7083333,11.799375 C17.396375,8.674625 24.1666667,8.44383333 24.1666667,14.7912083 L24.1666667,22.9583333 L24.1666667,22.9583333 Z" id="Shape"/>
            </g>
        </g>
    </g>
</symbol><symbol id="svg-icon--magnifier--zoom" viewBox="0 0 24 24"><path d="M13 10h-3v3h-2v-3h-3v-2h3v-3h2v3h3v2zm8.172 14l-7.387-7.387c-1.388.874-3.024 1.387-4.785 1.387-4.971 0-9-4.029-9-9s4.029-9 9-9 9 4.029 9 9c0 1.761-.514 3.398-1.387 4.785l7.387 7.387-2.828 2.828zm-12.172-8c3.859 0 7-3.14 7-7s-3.141-7-7-7-7 3.14-7 7 3.141 7 7 7z"/></symbol><symbol id="svg-icon--magnifier" viewBox="0 0 21.999 21">
<path d="M21.418,17.604l-5.312-5.312l-0.02,0.02C16.666,11.164,17,9.872,17,8.5C17,3.813,13.187,0,8.5,0C3.813,0,0,3.813,0,8.5
	C0,13.187,3.813,17,8.5,17c1.881,0,3.616-0.622,5.026-1.661l5.077,5.077C18.979,20.792,19.479,21,20.01,21h0.001
	c0.531,0,1.031-0.207,1.408-0.584C22.193,19.641,22.192,18.379,21.418,17.604z M8.5,15C4.916,15,2,12.084,2,8.5S4.916,2,8.5,2
	S15,4.916,15,8.5S12.084,15,8.5,15z"/>
<path d="M4.003,9.5c-0.268,0-0.49-0.213-0.499-0.483C3.445,7.248,4.098,5.588,5.343,4.344s2.887-1.904,4.674-1.84
	c0.276,0.009,0.492,0.24,0.483,0.516c-0.009,0.276-0.228,0.51-0.516,0.483C8.498,3.458,7.097,4.004,6.05,5.051
	C5.003,6.098,4.454,7.494,4.503,8.983C4.513,9.259,4.296,9.491,4.021,9.5C4.015,9.5,4.009,9.5,4.003,9.5z"/>
</symbol><symbol id="svg-icon--mail" viewBox="0.5 0.5 25 19">
<path fill="#B3D334" d="M12.889,11.893c-0.507,0-1.014-0.178-1.409-0.532L3.553,4.232l0.669-0.743l7.927,7.127
	c0.408,0.367,1.073,0.367,1.481,0l7.927-7.127l0.668,0.743l-7.927,7.128C13.903,11.715,13.396,11.893,12.889,11.893z"/>
<rect x="15.783" y="13.434" transform="matrix(0.7688 0.6395 -0.6395 0.7688 13.3593 -9.0799)" fill="#B3D334" width="6.907" height="1"/>
<rect x="6.042" y="10.48" transform="matrix(0.6392 0.769 -0.769 0.6392 13.076 -0.0042)" fill="#B3D334" width="1.001" height="6.907"/>
<path fill="#B3D334" d="M22.15,19.5H3.842C2,19.5,0.5,18.025,0.5,16.213V3.791C0.5,1.977,2,0.5,3.842,0.5H22.15
	c1.847,0,3.35,1.477,3.35,3.291v12.422C25.5,18.025,23.997,19.5,22.15,19.5z M3.842,2.5C3.09,2.5,2.5,3.067,2.5,3.791v12.422
	c0,0.722,0.59,1.287,1.342,1.287H22.15c0.757,0,1.35-0.565,1.35-1.287V3.791c0-0.724-0.593-1.291-1.35-1.291H3.842z"/>
</symbol><symbol id="svg-icon--pin" viewBox="0 0 24 24"><path d="M12 0c-4.198 0-8 3.403-8 7.602 0 4.198 3.469 9.21 8 16.398 4.531-7.188 8-12.2 8-16.398 0-4.199-3.801-7.602-8-7.602zm0 11c-1.657 0-3-1.343-3-3s1.343-3 3-3 3 1.343 3 3-1.343 3-3 3z"/></symbol><symbol id="svg-icon--print" viewBox="0 0 512 472.6">
<path d="M157.534,354.501v39.332h196.917v-39.332H157.534z M157.534,288.862v39.331h196.917v-39.331H157.534z M39.385,328.193
	h39.383v105.048C78.64,465.138,85.96,472.6,118.151,472.6h275.683c32.191,0,39.383-5.937,39.383-39.358V328.193h39.384
	c33.474,0.526,39.768-6.922,39.383-39.357V144.431c0-30.852-4.986-39.408-39.383-39.408h-39.384V39.409
	C433.602,6.987,427.308,0,393.834,0H118.151C86.646,0,78.64,7.513,78.768,39.409v65.613H39.385
	c-33.871,0-39.383,7.378-39.383,39.408v144.405C-0.127,320.732,7.879,328.72,39.385,328.193z M393.834,433.216H118.151V262.555
	h275.683V433.216z M418.513,190.378c0-11.813,9.448-21.256,21.269-21.256s21.269,9.442,21.269,21.256s-9.448,21.269-21.269,21.269
	S418.513,202.191,418.513,190.378z M118.151,39.383h275.683v65.69H118.151V39.383z"/>
</symbol><symbol id="svg-icon--rarr" viewBox="0 0 24 24"><path d="M13.025 1l-2.847 2.828 6.176 6.176h-16.354v3.992h16.354l-6.176 6.176 2.847 2.828 10.975-11z"/></symbol><symbol id="svg-icon--stamp" viewBox="0 0 19 22">
<path id="Fill-1" fill="#B3D334" d="M17.432,17.64c-0.084,0-0.17-0.013-0.253-0.036c-0.487-0.139-0.768-0.648-0.628-1.134
	c0.352-1.223-0.357-2.505-1.58-2.856l-2.25-0.646c-1.178-0.447-1.529-1.182-1.628-1.723c-0.325-1.762,1.644-3.827,2.845-4.901
	c0.629-0.634,0.883-1.586,0.645-2.511c-0.24-0.919-0.928-1.626-1.84-1.888c-0.969-0.277-1.962-0.01-2.66,0.722
	c-0.699,0.733-0.923,1.74-0.601,2.693c0.48,1.839,0.8,4.2-0.3,5.366C8.811,11.117,8.13,11.54,6.98,11.312l-2.327-0.666
	c-1.222-0.35-2.503,0.357-2.855,1.58c-0.14,0.487-0.648,0.767-1.134,0.627c-0.487-0.14-0.768-0.647-0.628-1.134
	c0.63-2.194,2.929-3.468,5.123-2.834l2.252,0.647C7.516,9.549,7.75,9.569,7.848,9.465c0.315-0.333,0.375-1.672-0.121-3.583
	C7.207,4.361,7.595,2.618,8.757,1.4c1.177-1.235,2.856-1.688,4.493-1.218c1.54,0.442,2.702,1.635,3.105,3.189
	c0.405,1.557-0.026,3.165-1.156,4.301c-1.648,1.476-2.396,2.737-2.303,3.241c0.021,0.115,0.158,0.223,0.406,0.317l2.175,0.624
	c2.194,0.631,3.466,2.93,2.835,5.123C18.197,17.379,17.83,17.64,17.432,17.64"/>
<path id="Fill-3" fill="#B3D334" d="M16.041,22H0.458C0.206,22,0,21.795,0,21.541c0-0.252,0.206-0.457,0.458-0.457h15.583
	c0.254,0,0.459,0.205,0.459,0.457C16.5,21.795,16.295,22,16.041,22"/>
<path id="Fill-5" fill="#B3D334" d="M17.891,17.584c-0.043,0-0.085-0.006-0.128-0.019l-16.514-4.75
	c-0.244-0.069-0.384-0.325-0.314-0.567c0.07-0.242,0.325-0.383,0.567-0.313l16.516,4.751c0.242,0.07,0.383,0.324,0.312,0.567
	C18.272,17.453,18.09,17.584,17.891,17.584"/>
<path id="Fill-7" fill="#B3D334" d="M1.942,13.614l13.912,3.999l0.193-0.671L2.134,12.943L1.942,13.614z M16.168,18.639
	c-0.043,0-0.084-0.005-0.127-0.018L1.248,14.369c-0.243-0.07-0.383-0.324-0.313-0.566l0.446-1.554
	c0.033-0.117,0.112-0.216,0.218-0.274c0.106-0.061,0.231-0.074,0.348-0.039l14.793,4.252c0.117,0.033,0.216,0.112,0.274,0.219
	c0.06,0.106,0.073,0.232,0.04,0.35l-0.447,1.552C16.55,18.508,16.367,18.639,16.168,18.639L16.168,18.639z"/>
</symbol><symbol id="svg-icon--telephone" viewBox="0 0 24 24"><path d="M20.89 23.654c-7.367 3.367-18.802-18.86-11.601-22.615l2.107-1.039 3.492 6.817-2.083 1.026c-2.189 1.174 2.37 10.08 4.609 8.994.091-.041 2.057-1.007 2.064-1.011l3.522 6.795c-.008.004-1.989.978-2.11 1.033zm-9.438-2.264c-1.476 1.072-3.506 1.17-4.124.106-.47-.809-.311-1.728-.127-2.793.201-1.161.429-2.478-.295-3.71-1.219-2.076-3.897-1.983-5.906-.67l.956 1.463c.829-.542 1.784-.775 2.493-.609 1.653.388 1.151 2.526 1.03 3.229-.212 1.223-.45 2.61.337 3.968 1.243 2.143 4.579 2.076 6.836.316-.412-.407-.811-.843-1.2-1.3z"/></symbol><symbol id="svg-icon--twitter" viewBox="0 0 29 29">
    <!-- Generator: Sketch 39.1 (31720) - http://www.bohemiancoding.com/sketch -->
    <title>iconmonstr-twitter-2 (1)</title>
    <desc>Created with Sketch.</desc>
    
    <g id="Symbols" stroke="none" stroke-width="1" fill="none" fill-rule="evenodd">
        <g id="Footer" transform="translate(-1169.000000, -100.000000)" fill="#55ACEE">
            <g id="iconmonstr-twitter-2-(1)" transform="translate(1169.000000, 100.000000)">
                <path d="M0,0 L0,29 L29,29 L29,0 L0,0 L0,0 Z M22.7915833,11.161375 C23.0429167,16.74025 18.882625,22.96075 11.5178333,22.96075 C9.27758333,22.96075 7.19320833,22.304625 5.4375,21.1784583 C7.54241667,21.4261667 9.6425,20.8425417 11.31,19.5363333 C9.573625,19.5037083 8.109125,18.357 7.60525,16.7813333 C8.22754167,16.89975 8.83895833,16.8647083 9.396,16.7136667 C7.48804167,16.330625 6.17216667,14.612375 6.21445833,12.7745 C6.74854167,13.07175 7.36116667,13.2505833 8.01004167,13.271125 C6.24466667,12.0905833 5.74441667,9.7585 6.782375,7.975 C8.73866667,10.37475 11.661625,11.9540417 14.9579583,12.1195833 C14.3791667,9.638875 16.26175,7.25 18.8222083,7.25 C19.962875,7.25 20.9935833,7.73091667 21.717375,8.50304167 C22.6212083,8.32541667 23.4706667,7.99554167 24.23675,7.54120833 C23.9407083,8.468 23.3111667,9.24495833 22.493125,9.73554167 C23.2954583,9.638875 24.0603333,9.42620833 24.7708333,9.11083333 C24.2391667,9.9035 23.566125,10.6019167 22.7915833,11.161375 L22.7915833,11.161375 Z" id="Shape"/>
            </g>
        </g>
    </g>
</symbol><symbol id="svg-icon--uarr" viewBox="0 0 24 24">
<path d="M1.001,10.977l2.828,2.847l6.176-6.175v16.354h3.992V7.648l6.176,6.175l2.828-2.847l-11-10.975L1.001,10.977z"/>
</symbol><symbol id="svg-icon--warning" viewBox="0 0 24 24"><path d="M12 1l-12 22h24l-12-22zm-1 8h2v7h-2v-7zm1 11.25c-.69 0-1.25-.56-1.25-1.25s.56-1.25 1.25-1.25 1.25.56 1.25 1.25-.56 1.25-1.25 1.25z"/></symbol></svg>