<?xml version="1.0" encoding="utf-8"?>
<!-- Generator: Adobe Illustrator 15.1.0, SVG Export Plug-In . SVG Version: 6.00 Build 0)  -->
<!DOCTYPE svg PUBLIC "-//W3C//DTD SVG 1.1//EN" "http://www.w3.org/Graphics/SVG/1.1/DTD/svg11.dtd">
<svg version="1.1" id="Layer_1" xmlns="http://www.w3.org/2000/svg" xmlns:xlink="http://www.w3.org/1999/xlink" x="0px" y="0px"
	 width="50px" height="53.571px" viewBox="0 0 50 53.571" enable-background="new 0 0 50 53.571" xml:space="preserve">
<path fill="#010101" d="M7.143,42.857h14.286v3.571H7.143V42.857z M25,21.428H7.143V25H25V21.428z M32.143,32.143V25L21.429,35.714
	l10.714,10.714v-7.143H50v-7.143H32.143z M16.071,28.571H7.143v3.572h8.929V28.571z M7.143,39.286h8.929v-3.571H7.143V39.286z
	 M39.285,42.857h3.572V50c-0.057,1.004-0.391,1.841-1.061,2.511c-0.67,0.669-1.507,1.005-2.512,1.06H3.571
	C1.618,53.571,0,51.954,0,50V10.714c0-1.953,1.618-3.571,3.571-3.571h10.714C14.286,3.181,17.467,0,21.429,0
	s7.143,3.181,7.143,7.143h10.714c1.953,0,3.572,1.618,3.572,3.571v17.856h-3.572V17.857H3.571V50h35.714V42.857z M7.143,14.286
	h28.572c0-1.953-1.619-3.571-3.572-3.571h-3.571C26.618,10.714,25,9.096,25,7.143s-1.618-3.572-3.571-3.572
	s-3.571,1.619-3.571,3.572s-1.619,3.571-3.572,3.571h-3.571C8.761,10.714,7.143,12.333,7.143,14.286z"/>
</svg>
