<?xml version="1.0" encoding="utf-8"?>
<!-- Generator: Adobe Illustrator 15.1.0, SVG Export Plug-In . SVG Version: 6.00 Build 0)  -->
<!DOCTYPE svg PUBLIC "-//W3C//DTD SVG 1.1//EN" "http://www.w3.org/Graphics/SVG/1.1/DTD/svg11.dtd">
<svg version="1.1" id="Layer_1" xmlns="http://www.w3.org/2000/svg" xmlns:xlink="http://www.w3.org/1999/xlink" x="0px" y="0px"
	 width="15px" height="15px" viewBox="0 0 15 15" enable-background="new 0 0 15 15" xml:space="preserve">
<title>Clock icon</title>
<desc>Created with Sketch.</desc>
<g id="Symbols">
	<g id="Nieuwsitem-_x23_1" transform="translate(0.000000, -388.000000)">
		<g id="Date" transform="translate(1.000000, 386.000000)">
			<g id="Clock-icon" transform="translate(0.000000, 3.000000)">
				<path fill="#CECECE" d="M9,9H6C5.448,9,5,8.553,5,8V3c0-0.552,0.448-1,1-1s1,0.448,1,1v4h2c0.553,0,1,0.447,1,1S9.553,9,9,9z"/>
				<path fill="#CECECE" d="M6.5,14C2.364,14-1,10.636-1,6.5S2.364-1,6.5-1S14,2.364,14,6.5S10.636,14,6.5,14z M6.5,1
					C3.467,1,1,3.467,1,6.5C1,9.532,3.467,12,6.5,12C9.532,12,12,9.532,12,6.5C12,3.467,9.532,1,6.5,1z"/>
			</g>
		</g>
	</g>
</g>
</svg>
