<?xml version="1.0" encoding="utf-8"?>
<!-- Generator: Adobe Illustrator 15.1.0, SVG Export Plug-In . SVG Version: 6.00 Build 0)  -->
<!DOCTYPE svg PUBLIC "-//W3C//DTD SVG 1.1//EN" "http://www.w3.org/Graphics/SVG/1.1/DTD/svg11.dtd">
<svg version="1.1" id="Layer_1" xmlns="http://www.w3.org/2000/svg" xmlns:xlink="http://www.w3.org/1999/xlink" x="0px" y="0px"
	 width="10px" height="10.077px" viewBox="0 0 10 10.077" enable-background="new 0 0 10 10.077" xml:space="preserve">
<path id="bullet" d="M5.65,9.793L9.7,5.744c0.005-0.004,0.011-0.006,0.015-0.011C9.905,5.542,10,5.29,10,5.039
	S9.906,4.536,9.715,4.344C9.711,4.34,9.705,4.338,9.7,4.334L5.65,0.286c-0.38-0.381-1.003-0.381-1.382,0
	c-0.38,0.38-0.38,1.003,0,1.383l3.371,3.37L4.267,8.41c-0.38,0.381-0.38,1.003,0,1.383C4.647,10.172,5.27,10.172,5.65,9.793z
	 M1.668,9.793l4.049-4.049c0.004-0.004,0.011-0.006,0.015-0.011c0.19-0.19,0.285-0.443,0.285-0.694S5.924,4.536,5.732,4.344
	C5.729,4.34,5.722,4.338,5.718,4.334L1.668,0.286c-0.381-0.381-1.003-0.381-1.383,0c-0.381,0.38-0.381,1.003,0,1.383l3.371,3.37
	L0.286,8.41c-0.381,0.381-0.381,1.003,0,1.383C0.666,10.172,1.289,10.172,1.668,9.793z"/>
</svg>
