<?xml version="1.0" encoding="utf-8"?>
<!-- Generator: Adobe Illustrator 15.1.0, SVG Export Plug-In . SVG Version: 6.00 Build 0)  -->
<!DOCTYPE svg PUBLIC "-//W3C//DTD SVG 1.1//EN" "http://www.w3.org/Graphics/SVG/1.1/DTD/svg11.dtd">
<svg version="1.1" id="Layer_1" xmlns="http://www.w3.org/2000/svg" xmlns:xlink="http://www.w3.org/1999/xlink" x="0px" y="0px"
	 width="10px" height="10.078px" viewBox="0 0 10 10.078" enable-background="new 0 0 10 10.078" xml:space="preserve">
<path id="bullet" d="M4.349,0.284l-4.05,4.049C0.294,4.337,0.288,4.339,0.284,4.344c-0.189,0.19-0.285,0.443-0.285,0.694
	s0.094,0.503,0.285,0.695c0.004,0.004,0.01,0.006,0.015,0.01l4.05,4.048c0.38,0.381,1.003,0.381,1.382,0
	c0.38-0.38,0.38-1.003,0-1.383l-3.37-3.37l3.371-3.371c0.38-0.381,0.38-1.004,0-1.383C5.352-0.095,4.729-0.095,4.349,0.284z
	 M8.331,0.284L4.282,4.333C4.278,4.337,4.271,4.339,4.267,4.344c-0.189,0.19-0.285,0.443-0.285,0.694s0.094,0.503,0.285,0.695
	c0.004,0.004,0.01,0.006,0.015,0.01l4.05,4.048c0.381,0.381,1.003,0.381,1.383,0c0.381-0.38,0.381-1.003,0-1.383l-3.371-3.37
	l3.37-3.371c0.381-0.381,0.381-1.004,0-1.383C9.333-0.095,8.71-0.095,8.331,0.284z"/>
</svg>
