<?xml version="1.0" encoding="UTF-8" standalone="no"?>
<svg width="29px" height="29px" viewBox="0 0 29 29" version="1.1" xmlns="http://www.w3.org/2000/svg" xmlns:xlink="http://www.w3.org/1999/xlink">
    <!-- Generator: Sketch 39.1 (31720) - http://www.bohemiancoding.com/sketch -->
    <title>Shape</title>
    <desc>Created with Sketch.</desc>
    <defs></defs>
    <g id="Symbols" stroke="none" stroke-width="1" fill="none" fill-rule="evenodd">
        <g id="Footer" transform="translate(-1130.000000, -100.000000)" fill="#3B5998">
            <g id="iconmonstr-facebook-2-(1)" transform="translate(1130.000000, 100.000000)">
                <path d="M0,0 L0,29 L29,29 L29,0 L0,0 L0,0 Z M19.3333333,8.45833333 L17.0097083,8.45833333 C16.265375,8.45833333 15.7083333,8.76283333 15.7083333,9.53254167 L15.7083333,10.875 L19.3333333,10.875 L19.0445417,14.5 L15.7083333,14.5 L15.7083333,24.1666667 L12.0833333,24.1666667 L12.0833333,14.5 L9.66666667,14.5 L9.66666667,10.875 L12.0833333,10.875 L12.0833333,8.551375 C12.0833333,6.108125 13.369,4.83333333 16.265375,4.83333333 L19.3333333,4.83333333 L19.3333333,8.45833333 L19.3333333,8.45833333 Z" id="Shape"></path>
            </g>
        </g>
    </g>
</svg>