<?xml version="1.0" encoding="utf-8"?>
<!-- Generator: Adobe Illustrator 15.1.0, SVG Export Plug-In . SVG Version: 6.00 Build 0)  -->
<!DOCTYPE svg PUBLIC "-//W3C//DTD SVG 1.1//EN" "http://www.w3.org/Graphics/SVG/1.1/DTD/svg11.dtd">
<svg version="1.1" id="Layer_1" xmlns="http://www.w3.org/2000/svg" xmlns:xlink="http://www.w3.org/1999/xlink" x="0px" y="0px"
	 width="21.167px" height="20.315px" viewBox="0.252 0.013 21.167 20.315" enable-background="new 0.252 0.013 21.167 20.315"
	 xml:space="preserve">
<path fill="#B3D334" d="M17.888,20.328h-4.706c-0.553,0-1-0.447-1-1v-6.343H9.459v6.343c0,0.553-0.448,1-1,1H3.782
	c-0.912,0-1.654-0.748-1.654-1.668V11.35c-0.782,0-1.185-0.304-1.401-0.565C0.01,9.919,0.116,8.617,0.967,7.882l8.525-7.384
	c0.691-0.599,1.766-0.647,2.505-0.123c0.066,0.034,0.128,0.075,0.183,0.123l8.525,7.385c0.849,0.733,0.956,2.035,0.239,2.902
	c-0.216,0.261-0.653,0.566-1.402,0.565v7.311C19.542,19.58,18.8,20.328,17.888,20.328z M14.182,18.328h3.36v-8.174
	c0-0.325,0.157-0.629,0.422-0.816c0.267-0.188,0.605-0.235,0.911-0.126c0.098,0.034,0.27,0.081,0.438,0.111L10.987,2.11
	c-0.051-0.03-0.099-0.063-0.143-0.101L2.365,9.317c0.187-0.031,0.353-0.079,0.43-0.106C3.101,9.103,3.441,9.15,3.706,9.338
	c0.265,0.188,0.422,0.492,0.422,0.816v8.174h3.331v-6.343c0-0.553,0.448-1,1-1h4.723c0.553,0,1,0.447,1,1V18.328z"/>
</svg>
