<?xml version="1.0" encoding="UTF-8" standalone="no"?>
<svg width="29px" height="29px" viewBox="0 0 29 29" version="1.1" xmlns="http://www.w3.org/2000/svg" xmlns:xlink="http://www.w3.org/1999/xlink">
    <!-- Generator: Sketch 39.1 (31720) - http://www.bohemiancoding.com/sketch -->
    <title>iconmonstr-linkedin-2</title>
    <desc>Created with Sketch.</desc>
    <defs></defs>
    <g id="Symbols" stroke="none" stroke-width="1" fill="none" fill-rule="evenodd">
        <g id="Footer" transform="translate(-1208.000000, -100.000000)" fill="#0077B5">
            <g id="iconmonstr-linkedin-2" transform="translate(1208.000000, 100.000000)">
                <path d="M0,0 L0,29 L29,29 L29,0 L0,0 L0,0 Z M9.66666667,22.9583333 L6.04166667,22.9583333 L6.04166667,9.66666667 L9.66666667,9.66666667 L9.66666667,22.9583333 L9.66666667,22.9583333 Z M7.85416667,8.1345 C6.68691667,8.1345 5.73958333,7.17991667 5.73958333,6.003 C5.73958333,4.82608333 6.68691667,3.8715 7.85416667,3.8715 C9.02141667,3.8715 9.96875,4.82608333 9.96875,6.003 C9.96875,7.17991667 9.022625,8.1345 7.85416667,8.1345 L7.85416667,8.1345 Z M24.1666667,22.9583333 L20.5416667,22.9583333 L20.5416667,16.1868333 C20.5416667,12.1171667 15.7083333,12.4252917 15.7083333,16.1868333 L15.7083333,22.9583333 L12.0833333,22.9583333 L12.0833333,9.66666667 L15.7083333,9.66666667 L15.7083333,11.799375 C17.396375,8.674625 24.1666667,8.44383333 24.1666667,14.7912083 L24.1666667,22.9583333 L24.1666667,22.9583333 Z" id="Shape"></path>
            </g>
        </g>
    </g>
</svg>