<?xml version="1.0" encoding="utf-8"?>
<!-- Generator: Adobe Illustrator 15.1.0, SVG Export Plug-In . SVG Version: 6.00 Build 0)  -->
<!DOCTYPE svg PUBLIC "-//W3C//DTD SVG 1.1//EN" "http://www.w3.org/Graphics/SVG/1.1/DTD/svg11.dtd">
<svg version="1.1" id="Layer_1" xmlns="http://www.w3.org/2000/svg" xmlns:xlink="http://www.w3.org/1999/xlink" x="0px" y="0px"
	 width="18px" height="24px" viewBox="3 0 18 24" enable-background="new 3 0 18 24" xml:space="preserve">
<path d="M18,10V6c0-3.313-2.688-6-6-6C8.687,0,6,2.687,6,6v4H3v14h18V10H18z M13.861,19.975L12,18.139L10.165,20l-1.13-1.129
	l1.827-1.86L9,15.174l1.129-1.13l1.859,1.827L13.826,14l1.139,1.139l-1.833,1.86L15,18.835L13.861,19.975z M8,10V6
	c0-2.206,1.795-4,4-4s4,1.794,4,4v4H8z"/>
</svg>
