<?xml version="1.0" encoding="utf-8"?>
<!-- Generator: Adobe Illustrator 15.1.0, SVG Export Plug-In . SVG Version: 6.00 Build 0)  -->
<!DOCTYPE svg PUBLIC "-//W3C//DTD SVG 1.1//EN" "http://www.w3.org/Graphics/SVG/1.1/DTD/svg11.dtd">
<svg version="1.1" id="Layer_1" xmlns="http://www.w3.org/2000/svg" xmlns:xlink="http://www.w3.org/1999/xlink" x="0px" y="0px"
	 width="21.999px" height="21px" viewBox="0 0 21.999 21" enable-background="new 0 0 21.999 21" xml:space="preserve">
<path d="M21.418,17.604l-5.312-5.312l-0.02,0.02C16.666,11.164,17,9.872,17,8.5C17,3.813,13.187,0,8.5,0C3.813,0,0,3.813,0,8.5
	C0,13.187,3.813,17,8.5,17c1.881,0,3.616-0.622,5.026-1.661l5.077,5.077C18.979,20.792,19.479,21,20.01,21h0.001
	c0.531,0,1.031-0.207,1.408-0.584C22.193,19.641,22.192,18.379,21.418,17.604z M8.5,15C4.916,15,2,12.084,2,8.5S4.916,2,8.5,2
	S15,4.916,15,8.5S12.084,15,8.5,15z"/>
<path d="M4.003,9.5c-0.268,0-0.49-0.213-0.499-0.483C3.445,7.248,4.098,5.588,5.343,4.344s2.887-1.904,4.674-1.84
	c0.276,0.009,0.492,0.24,0.483,0.516c-0.009,0.276-0.228,0.51-0.516,0.483C8.498,3.458,7.097,4.004,6.05,5.051
	C5.003,6.098,4.454,7.494,4.503,8.983C4.513,9.259,4.296,9.491,4.021,9.5C4.015,9.5,4.009,9.5,4.003,9.5z"/>
</svg>
