<?xml version="1.0" encoding="utf-8"?>
<!-- Generator: Adobe Illustrator 15.1.0, SVG Export Plug-In . SVG Version: 6.00 Build 0)  -->
<!DOCTYPE svg PUBLIC "-//W3C//DTD SVG 1.1//EN" "http://www.w3.org/Graphics/SVG/1.1/DTD/svg11.dtd">
<svg version="1.1" id="Layer_1" xmlns="http://www.w3.org/2000/svg" xmlns:xlink="http://www.w3.org/1999/xlink" x="0px" y="0px"
	 width="25px" height="19px" viewBox="0.5 0.5 25 19" enable-background="new 0.5 0.5 25 19" xml:space="preserve">
<path fill="#B3D334" d="M12.889,11.893c-0.507,0-1.014-0.178-1.409-0.532L3.553,4.232l0.669-0.743l7.927,7.127
	c0.408,0.367,1.073,0.367,1.481,0l7.927-7.127l0.668,0.743l-7.927,7.128C13.903,11.715,13.396,11.893,12.889,11.893z"/>
<rect x="15.783" y="13.434" transform="matrix(0.7688 0.6395 -0.6395 0.7688 13.3593 -9.0799)" fill="#B3D334" width="6.907" height="1"/>
<rect x="6.042" y="10.48" transform="matrix(0.6392 0.769 -0.769 0.6392 13.076 -0.0042)" fill="#B3D334" width="1.001" height="6.907"/>
<path fill="#B3D334" d="M22.15,19.5H3.842C2,19.5,0.5,18.025,0.5,16.213V3.791C0.5,1.977,2,0.5,3.842,0.5H22.15
	c1.847,0,3.35,1.477,3.35,3.291v12.422C25.5,18.025,23.997,19.5,22.15,19.5z M3.842,2.5C3.09,2.5,2.5,3.067,2.5,3.791v12.422
	c0,0.722,0.59,1.287,1.342,1.287H22.15c0.757,0,1.35-0.565,1.35-1.287V3.791c0-0.724-0.593-1.291-1.35-1.291H3.842z"/>
</svg>
