<?xml version="1.0" encoding="utf-8"?>
<!-- Generator: Adobe Illustrator 15.0.2, SVG Export Plug-In . SVG Version: 6.00 Build 0)  -->
<!DOCTYPE svg PUBLIC "-//W3C//DTD SVG 1.1//EN" "http://www.w3.org/Graphics/SVG/1.1/DTD/svg11.dtd">
<svg version="1.1" id="Layer_1" xmlns="http://www.w3.org/2000/svg" xmlns:xlink="http://www.w3.org/1999/xlink" x="0px" y="0px"
	 width="512px" height="472.6px" viewBox="0 0 512 472.6" enable-background="new 0 0 512 472.6" xml:space="preserve">
<path d="M157.534,354.501v39.332h196.917v-39.332H157.534z M157.534,288.862v39.331h196.917v-39.331H157.534z M39.385,328.193
	h39.383v105.048C78.64,465.138,85.96,472.6,118.151,472.6h275.683c32.191,0,39.383-5.937,39.383-39.358V328.193h39.384
	c33.474,0.526,39.768-6.922,39.383-39.357V144.431c0-30.852-4.986-39.408-39.383-39.408h-39.384V39.409
	C433.602,6.987,427.308,0,393.834,0H118.151C86.646,0,78.64,7.513,78.768,39.409v65.613H39.385
	c-33.871,0-39.383,7.378-39.383,39.408v144.405C-0.127,320.732,7.879,328.72,39.385,328.193z M393.834,433.216H118.151V262.555
	h275.683V433.216z M418.513,190.378c0-11.813,9.448-21.256,21.269-21.256s21.269,9.442,21.269,21.256s-9.448,21.269-21.269,21.269
	S418.513,202.191,418.513,190.378z M118.151,39.383h275.683v65.69H118.151V39.383z"/>
</svg>
