<?xml version="1.0" encoding="utf-8"?>
<!-- Generator: Adobe Illustrator 15.1.0, SVG Export Plug-In . SVG Version: 6.00 Build 0)  -->
<!DOCTYPE svg PUBLIC "-//W3C//DTD SVG 1.1//EN" "http://www.w3.org/Graphics/SVG/1.1/DTD/svg11.dtd">
<svg version="1.1" id="Layer_1" xmlns="http://www.w3.org/2000/svg" xmlns:xlink="http://www.w3.org/1999/xlink" x="0px" y="0px"
	 width="19px" height="22px" viewBox="0 0 19 22" enable-background="new 0 0 19 22" xml:space="preserve">
<path id="Fill-1" fill="#B3D334" d="M17.432,17.64c-0.084,0-0.17-0.013-0.253-0.036c-0.487-0.139-0.768-0.648-0.628-1.134
	c0.352-1.223-0.357-2.505-1.58-2.856l-2.25-0.646c-1.178-0.447-1.529-1.182-1.628-1.723c-0.325-1.762,1.644-3.827,2.845-4.901
	c0.629-0.634,0.883-1.586,0.645-2.511c-0.24-0.919-0.928-1.626-1.84-1.888c-0.969-0.277-1.962-0.01-2.66,0.722
	c-0.699,0.733-0.923,1.74-0.601,2.693c0.48,1.839,0.8,4.2-0.3,5.366C8.811,11.117,8.13,11.54,6.98,11.312l-2.327-0.666
	c-1.222-0.35-2.503,0.357-2.855,1.58c-0.14,0.487-0.648,0.767-1.134,0.627c-0.487-0.14-0.768-0.647-0.628-1.134
	c0.63-2.194,2.929-3.468,5.123-2.834l2.252,0.647C7.516,9.549,7.75,9.569,7.848,9.465c0.315-0.333,0.375-1.672-0.121-3.583
	C7.207,4.361,7.595,2.618,8.757,1.4c1.177-1.235,2.856-1.688,4.493-1.218c1.54,0.442,2.702,1.635,3.105,3.189
	c0.405,1.557-0.026,3.165-1.156,4.301c-1.648,1.476-2.396,2.737-2.303,3.241c0.021,0.115,0.158,0.223,0.406,0.317l2.175,0.624
	c2.194,0.631,3.466,2.93,2.835,5.123C18.197,17.379,17.83,17.64,17.432,17.64"/>
<path id="Fill-3" fill="#B3D334" d="M16.041,22H0.458C0.206,22,0,21.795,0,21.541c0-0.252,0.206-0.457,0.458-0.457h15.583
	c0.254,0,0.459,0.205,0.459,0.457C16.5,21.795,16.295,22,16.041,22"/>
<path id="Fill-5" fill="#B3D334" d="M17.891,17.584c-0.043,0-0.085-0.006-0.128-0.019l-16.514-4.75
	c-0.244-0.069-0.384-0.325-0.314-0.567c0.07-0.242,0.325-0.383,0.567-0.313l16.516,4.751c0.242,0.07,0.383,0.324,0.312,0.567
	C18.272,17.453,18.09,17.584,17.891,17.584"/>
<path id="Fill-7" fill="#B3D334" d="M1.942,13.614l13.912,3.999l0.193-0.671L2.134,12.943L1.942,13.614z M16.168,18.639
	c-0.043,0-0.084-0.005-0.127-0.018L1.248,14.369c-0.243-0.07-0.383-0.324-0.313-0.566l0.446-1.554
	c0.033-0.117,0.112-0.216,0.218-0.274c0.106-0.061,0.231-0.074,0.348-0.039l14.793,4.252c0.117,0.033,0.216,0.112,0.274,0.219
	c0.06,0.106,0.073,0.232,0.04,0.35l-0.447,1.552C16.55,18.508,16.367,18.639,16.168,18.639L16.168,18.639z"/>
</svg>
