<?xml version="1.0" encoding="UTF-8" standalone="no"?>
<svg width="29px" height="29px" viewBox="0 0 29 29" version="1.1" xmlns="http://www.w3.org/2000/svg" xmlns:xlink="http://www.w3.org/1999/xlink">
    <!-- Generator: Sketch 39.1 (31720) - http://www.bohemiancoding.com/sketch -->
    <title>iconmonstr-twitter-2 (1)</title>
    <desc>Created with Sketch.</desc>
    <defs></defs>
    <g id="Symbols" stroke="none" stroke-width="1" fill="none" fill-rule="evenodd">
        <g id="Footer" transform="translate(-1169.000000, -100.000000)" fill="#55ACEE">
            <g id="iconmonstr-twitter-2-(1)" transform="translate(1169.000000, 100.000000)">
                <path d="M0,0 L0,29 L29,29 L29,0 L0,0 L0,0 Z M22.7915833,11.161375 C23.0429167,16.74025 18.882625,22.96075 11.5178333,22.96075 C9.27758333,22.96075 7.19320833,22.304625 5.4375,21.1784583 C7.54241667,21.4261667 9.6425,20.8425417 11.31,19.5363333 C9.573625,19.5037083 8.109125,18.357 7.60525,16.7813333 C8.22754167,16.89975 8.83895833,16.8647083 9.396,16.7136667 C7.48804167,16.330625 6.17216667,14.612375 6.21445833,12.7745 C6.74854167,13.07175 7.36116667,13.2505833 8.01004167,13.271125 C6.24466667,12.0905833 5.74441667,9.7585 6.782375,7.975 C8.73866667,10.37475 11.661625,11.9540417 14.9579583,12.1195833 C14.3791667,9.638875 16.26175,7.25 18.8222083,7.25 C19.962875,7.25 20.9935833,7.73091667 21.717375,8.50304167 C22.6212083,8.32541667 23.4706667,7.99554167 24.23675,7.54120833 C23.9407083,8.468 23.3111667,9.24495833 22.493125,9.73554167 C23.2954583,9.638875 24.0603333,9.42620833 24.7708333,9.11083333 C24.2391667,9.9035 23.566125,10.6019167 22.7915833,11.161375 L22.7915833,11.161375 Z" id="Shape"></path>
            </g>
        </g>
    </g>
</svg>